<svg width="359" height="864" viewBox="0 0 359 864" fill="none" xmlns="http://www.w3.org/2000/svg">
<g filter="url(#filter0_d_77_630)">
<path d="M126.216 1C108.276 1.73133 88.5912 31.2699 88.2164 51L109.216 131C90.8058 155.711 80.5998 178.045 79.2164 197C69.2164 240 57.013 234.129 51.7164 289C41.4928 305.395 47.0153 313.392 67.7164 326.5C87.4645 343.259 80.3295 358.004 56.716 387.5C43.5467 418.739 34.9543 436.117 14.216 466.5C8.20568 491.782 24.3355 499.766 65.716 510C64.6217 516.487 71.2161 515.5 65.716 532C59.7161 562.5 65.6334 571.786 83.2161 584.5C74.0139 599.293 71.8447 607.031 83.2161 618C90.7317 626.811 93.5017 633.227 93.7161 649.5C75.539 683.827 86.7161 700 101.716 725C135.985 760.763 200.037 727.836 260.216 732.5C274.854 774.03 284.6 796.511 312.716 831" stroke="url(#paint0_linear_77_630)" stroke-width="4"/>
</g>
<defs>
<filter id="filter0_d_77_630" x="-3.05176e-05" y="-31.9983" width="365.266" height="895.262" filterUnits="userSpaceOnUse" color-interpolation-filters="sRGB">
<feFlood flood-opacity="0" result="BackgroundImageFix"/>
<feColorMatrix in="SourceAlpha" type="matrix" values="0 0 0 0 0 0 0 0 0 0 0 0 0 0 0 0 0 0 127 0" result="hardAlpha"/>
<feOffset dx="20"/>
<feGaussianBlur stdDeviation="15.5"/>
<feComposite in2="hardAlpha" operator="out"/>
<feColorMatrix type="matrix" values="0 0 0 0 0.764706 0 0 0 0 0.588235 0 0 0 0 0.929412 0 0 0 1 0"/>
<feBlend mode="normal" in2="BackgroundImageFix" result="effect1_dropShadow_77_630"/>
<feBlend mode="normal" in="SourceGraphic" in2="effect1_dropShadow_77_630" result="shape"/>
</filter>
<linearGradient id="paint0_linear_77_630" x1="195.075" y1="-14.7429" x2="195.075" y2="815.257" gradientUnits="userSpaceOnUse">
<stop/>
<stop offset="0.499455" stop-color="#C396ED"/>
<stop offset="1"/>
</linearGradient>
</defs>
</svg>
