<svg width="1917" height="1046" viewBox="0 0 1917 1046" fill="none" xmlns="http://www.w3.org/2000/svg">
<g clip-path="url(#clip0_67_1856)">
<g opacity="0.4">
<line x1="-60" y1="232" x2="1916" y2="232" stroke="url(#paint0_linear_67_1856)" stroke-width="2"/>
<line x1="1070" y1="291" x2="1916" y2="290" stroke="url(#paint1_linear_67_1856)" stroke-width="2"/>
<line x1="-60" y1="327" x2="1916" y2="327" stroke="url(#paint2_linear_67_1856)" stroke-width="2"/>
<line x1="-60" y1="513" x2="2312" y2="513" stroke="url(#paint3_linear_67_1856)" stroke-width="2"/>
<line x1="-60" y1="356" x2="1911" y2="356" stroke="url(#paint4_linear_67_1856)" stroke-width="2"/>
<line x1="-60" y1="382" x2="1906" y2="382" stroke="url(#paint5_linear_67_1856)" stroke-width="2"/>
<line x1="-60" y1="401" x2="1900" y2="401" stroke="url(#paint6_linear_67_1856)" stroke-width="2"/>
<line x1="-60" y1="416" x2="1896" y2="416" stroke="url(#paint7_linear_67_1856)" stroke-width="2"/>
<line x1="-60" y1="428" x2="1892" y2="428" stroke="url(#paint8_linear_67_1856)" stroke-width="2"/>
<line x1="-60" y1="438" x2="1887" y2="438" stroke="url(#paint9_linear_67_1856)" stroke-width="2"/>
<line x1="-60" y1="446" x2="1874" y2="446" stroke="url(#paint10_linear_67_1856)" stroke-width="2"/>
<line x1="-60" y1="454" x2="1870" y2="454" stroke="url(#paint11_linear_67_1856)" stroke-width="2"/>
<line x1="-60" y1="462" x2="1869" y2="462" stroke="url(#paint12_linear_67_1856)" stroke-width="2"/>
<line x1="-60" y1="470" x2="1866" y2="470" stroke="url(#paint13_linear_67_1856)" stroke-width="2"/>
<line x1="-60" y1="476" x2="1848" y2="476" stroke="url(#paint14_linear_67_1856)" stroke-width="2"/>
<line x1="-60" y1="482" x2="1848" y2="482" stroke="url(#paint15_linear_67_1856)" stroke-width="2"/>
<line x1="-60" y1="504" x2="1844" y2="504" stroke="url(#paint16_linear_67_1856)" stroke-width="2"/>
<path d="M-60 488L1846 488M-60 493L1846 493M-60 496.5L1845.25 496.5M-60 500.5L1845.25 500.5" stroke="url(#paint17_linear_67_1856)" stroke-width="2"/>
</g>
<line x1="1916" y1="326.5" x2="2289" y2="326.5" stroke="#A0A0A0" stroke-opacity="0.5" stroke-dasharray="2 2"/>
<line x1="-60" y1="139.5" x2="2289" y2="139.5" stroke="#A0A0A0" stroke-opacity="0.5" stroke-dasharray="2 2"/>
<line x1="1915" y1="464.5" x2="2289" y2="464.5" stroke="#A0A0A0" stroke-opacity="0.25" stroke-dasharray="2 2"/>
<line x1="1915" y1="513" x2="1915" y2="14" stroke="#A0A0A0" stroke-opacity="0.5" stroke-dasharray="2 2"/>
<path d="M2101.83 326.5L2106 322.333L2105.17 321.5L2101 325.667L2096.83 321.5L2096 322.333L2100.17 326.5L2096 330.667L2096.83 331.5L2101 327.333L2105.17 331.5L2106 330.667L2101.83 326.5Z" fill="#A0A0A0" fill-opacity="0.75"/>
<path d="M2101.83 140L2106 135.833L2105.17 135L2101 139.167L2096.83 135L2096 135.833L2100.17 140L2096 144.167L2096.83 145L2101 140.833L2105.17 145L2106 144.167L2101.83 140Z" fill="#A0A0A0" fill-opacity="0.75"/>
<path d="M2101.83 513L2106 508.833L2105.17 508L2101 512.167L2096.83 508L2096 508.833L2100.17 513H2101.83Z" fill="#A0A0A0" fill-opacity="0.75"/>
<path d="M2288.83 326.5L2293 322.333L2292.17 321.5L2288 325.667L2283.83 321.5L2283 322.333L2287.17 326.5L2283 330.667L2283.83 331.5L2288 327.333L2292.17 331.5L2293 330.667L2288.83 326.5Z" fill="#A0A0A0" fill-opacity="0.75"/>
<path d="M1915.83 326.5L1920 322.333L1919.17 321.5L1915 325.667V327.333L1919.17 331.5L1920 330.667L1915.83 326.5Z" fill="#A0A0A0" fill-opacity="0.75"/>
<path d="M2288.83 140L2293 135.833L2292.17 135L2288 139.167L2283.83 135L2283 135.833L2287.17 140L2283 144.167L2283.83 145L2288 140.833L2292.17 145L2293 144.167L2288.83 140Z" fill="#A0A0A0" fill-opacity="0.75"/>
<path d="M1915.83 513L1920 508.833L1919.17 508L1915 512.167L1910.83 508L1910 508.833L1914.17 513L1910 517.167L1910.83 518L1915 513.833L1919.17 518L1920 517.167L1915.83 513Z" fill="#A0A0A0" fill-opacity="0.75"/>
<path d="M1964.83 464L1969 459.833L1968.17 459L1964 463.167L1959.83 459L1959 459.833L1963.17 464L1959 468.167L1959.83 469L1964 464.833L1968.17 469L1969 468.167L1964.83 464Z" fill="#A0A0A0" fill-opacity="0.3"/>
<path d="M2052.83 375.5L2057 371.333L2056.17 370.5L2052 374.667L2047.83 370.5L2047 371.333L2051.17 375.5L2047 379.667L2047.83 380.5L2052 376.333L2056.17 380.5L2057 379.667L2052.83 375.5Z" fill="#A0A0A0" fill-opacity="0.3"/>
<path d="M2150.83 375.5L2155 371.333L2154.17 370.5L2150 374.667L2145.83 370.5L2145 371.333L2149.17 375.5L2145 379.667L2145.83 380.5L2150 376.333L2154.17 380.5L2155 379.667L2150.83 375.5Z" fill="#A0A0A0" fill-opacity="0.3"/>
<path d="M2052.83 277L2057 272.833L2056.17 272L2052 276.167L2047.83 272L2047 272.833L2051.17 277L2047 281.167L2047.83 282L2052 277.833L2056.17 282L2057 281.167L2052.83 277Z" fill="#A0A0A0" fill-opacity="0.3"/>
<path d="M2150.83 277L2155 272.833L2154.17 272L2150 276.167L2145.83 272L2145 272.833L2149.17 277L2145 281.167L2145.83 282L2150 277.833L2154.17 282L2155 281.167L2150.83 277Z" fill="#A0A0A0" fill-opacity="0.3"/>
<mask id="mask0_67_1856" style="mask-type:alpha" maskUnits="userSpaceOnUse" x="-64" y="5" width="2377" height="1016">
<path d="M1915.98 326.708C1921.67 383.161 1929.84 448.621 1983.61 480.338C2024.44 504.414 2042.83 509.837 2114 512.834L2114 513.083L2114 513.333C2042.83 516.33 2024.44 521.586 1983.61 545.662C1929.84 577.379 1921.67 642.839 1915.98 699.292L1915 715L1913.99 697.825C1911.81 665.513 1906.5 642.361 1896.28 611.631C1894.43 606.082 1887.37 585.772 1883.73 582.715C1881.49 580.817 1879.52 582.735 1877.11 581.936C1868.92 579.219 1868.59 561.601 1866.04 554.448C1865.57 553.151 1865.32 551.87 1864.27 551.433C1863.57 551.142 1862.78 552.859 1862.2 554.448C1860.41 559.404 1858.28 562.283 1855.98 562.283C1850.42 562.283 1845.78 545.348 1844.75 522.907C1844.67 521.109 1844.23 519.182 1843.03 518.632C1842.11 518.21 1841.03 520.459 1840.8 522.907C1839.61 535.584 1836.07 544.777 1831.89 544.778C1826.73 544.778 1822.54 530.774 1822.54 513.5C1822.54 513.38 1822.54 513.261 1822.54 513.142L1822.54 513C1822.54 512.834 1822.54 512.667 1822.54 512.501C1822.54 495.226 1826.73 481.222 1831.89 481.222C1836.07 481.223 1839.61 490.416 1840.8 503.093C1841.03 505.541 1842.11 507.79 1843.03 507.368C1844.23 506.818 1844.67 504.891 1844.75 503.093C1845.78 480.652 1850.42 463.717 1855.98 463.717C1858.28 463.717 1860.41 466.596 1862.2 471.552C1862.78 473.141 1863.57 474.858 1864.27 474.567C1865.32 474.13 1865.57 472.849 1866.04 471.552C1868.59 464.399 1868.92 446.781 1877.11 444.064C1879.52 443.265 1881.49 445.183 1883.73 443.285C1887.37 440.228 1894.43 419.918 1896.28 414.369C1906.5 383.639 1911.81 360.487 1913.99 328.175L1915 307.5L1915.98 326.708Z" fill="black"/>
<path d="M821.08 7C825.67 22.0649 833.824 42.6004 839.084 57.4355C842.071 65.8621 850.383 96.9309 855.103 101.356C862.296 108.1 872.62 97.6755 879.498 94.8883C929.588 74.6286 962.051 163.135 973.2 198.045C978.419 214.399 981.511 232.451 986.901 248.28C994.748 271.312 1000.94 253.519 1009.38 243.754C1039.03 209.474 1059.42 259.239 1067.55 283.515C1070.98 293.749 1072.9 306.377 1077.07 315.952C1085.89 336.202 1092.4 309.828 1097.4 301.791C1101.9 294.544 1107.46 288.525 1116.63 291.382C1134.19 296.857 1139.78 349.399 1146.03 364.878C1149.38 373.2 1151.56 374.164 1155.61 365.992C1159.72 357.691 1167.16 315.807 1183.73 332.166C1196.04 344.319 1200.69 406.236 1205 425.782C1205.57 428.379 1206.25 432.271 1207.2 434.569C1210.86 443.375 1213.43 429.029 1214.23 425.612C1217.88 409.908 1220.12 375.233 1227.65 363.11C1237.51 347.241 1245.8 367.231 1248.17 376.616C1255.45 405.393 1254.23 437.76 1260.74 465.942C1260.99 467.036 1262.38 472.421 1264.13 471.521C1265.81 470.078 1265.92 467.765 1266.36 465.752C1269.94 449.219 1271.74 398.34 1279.2 387.685C1291.09 370.708 1295.54 405.683 1296.48 412.216C1300.1 437.261 1301.45 462.97 1303.09 488.025C1303.64 496.25 1303.93 504.588 1304.01 513C1303.93 521.412 1303.64 529.75 1303.09 537.975C1301.45 563.03 1300.1 588.739 1296.48 613.784C1295.54 620.317 1291.09 655.292 1279.2 638.315C1271.74 627.66 1269.94 576.781 1266.36 560.248C1265.92 558.235 1265.81 555.922 1264.13 554.479C1262.38 553.579 1260.99 558.964 1260.74 560.058C1254.23 588.24 1255.45 620.607 1248.17 649.384C1245.8 658.769 1237.51 678.759 1227.65 662.89C1220.12 650.767 1217.88 616.092 1214.23 600.388C1213.43 596.971 1210.86 582.625 1207.2 591.431C1206.25 593.729 1205.57 597.621 1205 600.218C1200.69 619.764 1196.04 681.681 1183.73 693.834C1167.16 710.193 1159.72 668.31 1155.61 660.008C1151.56 651.836 1149.38 652.8 1146.03 661.122C1139.78 676.601 1134.19 729.143 1116.63 734.618C1107.46 737.475 1101.9 731.456 1097.4 724.209C1092.4 716.172 1085.89 689.798 1077.07 710.048C1072.9 719.623 1070.98 732.251 1067.55 742.485C1059.42 766.761 1039.03 816.526 1009.38 782.246C1000.94 772.481 994.748 754.688 986.901 777.72C981.511 793.549 978.419 811.601 973.2 827.955C962.051 862.865 929.588 951.371 879.498 931.112C872.62 928.324 862.296 917.9 855.103 924.644C850.383 929.069 842.071 960.138 839.084 968.564C833.824 983.4 825.67 1003.94 821.08 1019L-62.5 1019.67L-60.5 513.67L-62.5 7.66987L821.08 7Z" fill="black"/>
<path d="M1327.57 401.792C1337.8 401.792 1346.1 451.505 1346.1 512.83L1346.1 513L1346.1 513.17C1346.1 574.495 1337.8 624.208 1327.57 624.208C1317.34 624.208 1309.04 574.495 1309.04 513.17L1309.04 513L1309.04 512.83C1309.04 451.505 1317.34 401.792 1327.57 401.792Z" fill="black"/>
<path d="M1367.26 417.534C1375.92 417.535 1382.94 460.053 1382.94 512.501C1382.94 512.667 1382.94 512.834 1382.94 513L1382.94 513.23L1382.94 513.5C1382.94 565.947 1375.92 608.465 1367.26 608.466C1358.6 608.466 1351.58 565.948 1351.58 513.5C1351.58 513.385 1351.58 513.27 1351.58 513.155L1351.58 513L1351.58 512.786L1351.58 512.501C1351.58 460.052 1358.6 417.534 1367.26 417.534Z" fill="black"/>
<path d="M1400.16 429.683C1406.59 427.581 1408.42 442.256 1409.2 446.357C1412.99 466.252 1414.63 489.722 1414.52 513C1414.63 536.278 1412.99 559.748 1409.2 579.643C1408.42 583.744 1406.59 598.419 1400.16 596.317C1395.57 594.808 1392.26 568.035 1391.64 562.825C1389.77 547.333 1388.67 530.261 1388.58 513C1388.67 495.739 1389.77 478.667 1391.64 463.175C1392.26 457.965 1395.57 431.192 1400.16 429.683Z" fill="black"/>
<path d="M1432.13 438.674C1433.46 438.32 1434.07 438.579 1434.98 439.558C1437.05 441.771 1439.75 456.352 1440.33 460.188C1442.75 476.42 1443.71 495.04 1443.63 513C1443.71 530.96 1442.75 549.58 1440.33 565.812C1439.75 569.648 1437.05 584.229 1434.98 586.442C1434.07 587.421 1433.46 587.68 1432.13 587.326C1429 586.496 1426.43 574.813 1425.77 571.646C1422.45 555.526 1421.11 533.917 1421.22 513C1421.11 492.083 1422.45 470.474 1425.77 454.354C1426.43 451.187 1429 439.504 1432.13 438.674Z" fill="black"/>
<path d="M1462.09 446.676C1466.46 445.263 1467.7 450.957 1468.58 453.914C1472.04 465.525 1473.87 489.249 1473.87 513C1473.87 536.751 1472.04 560.475 1468.58 572.086C1467.7 575.043 1466.46 580.737 1462.09 579.324V579.318C1460.15 578.694 1458.8 573.25 1458.18 571.197C1454.58 559.192 1452.96 535.895 1452.96 513C1452.96 490.105 1454.58 466.808 1458.18 454.803C1458.8 452.75 1460.15 447.306 1462.09 446.682V446.676Z" fill="black"/>
<path d="M1494.46 455.458C1500.01 455.459 1504.51 480.997 1504.51 512.501L1504.51 512.801L1504.51 513C1504.51 513.166 1504.51 513.333 1504.51 513.5C1504.51 545.003 1500.01 570.541 1494.46 570.542C1488.92 570.542 1484.42 545.003 1484.42 513.5C1484.42 513.333 1484.42 513.166 1484.42 513L1484.42 512.801L1484.42 512.501C1484.42 480.997 1488.92 455.458 1494.46 455.458Z" fill="black"/>
<path d="M1525.84 462.418C1531.38 462.419 1535.88 484.841 1535.88 512.501C1535.88 512.589 1535.88 512.677 1535.88 512.765L1535.88 513L1535.88 513.199C1535.88 513.299 1535.88 513.399 1535.88 513.5C1535.88 541.159 1531.38 563.581 1525.84 563.582C1520.29 563.582 1515.79 541.159 1515.79 513.5C1515.79 513.333 1515.79 513.166 1515.79 513L1515.79 512.827C1515.79 512.718 1515.79 512.61 1515.79 512.501C1515.79 484.841 1520.29 462.418 1525.84 462.418Z" fill="black"/>
<path d="M1555.91 469.992C1561.46 469.992 1565.96 489.024 1565.96 512.501C1565.96 512.612 1565.96 512.723 1565.96 512.834L1565.96 513L1565.96 513.166C1565.96 513.277 1565.96 513.388 1565.96 513.5C1565.96 536.976 1561.46 556.008 1555.91 556.008C1550.36 556.008 1545.87 536.977 1545.87 513.5C1545.87 513.333 1545.87 513.166 1545.87 513L1545.87 512.834C1545.87 512.723 1545.87 512.612 1545.87 512.501C1545.87 489.023 1550.36 469.992 1555.91 469.992Z" fill="black"/>
<path d="M1585.91 476.345C1591.45 476.346 1595.95 492.533 1595.95 512.501C1595.95 512.667 1595.95 512.834 1595.95 513L1595.95 513.176C1595.95 513.284 1595.95 513.391 1595.95 513.5C1595.95 533.467 1591.45 549.654 1585.91 549.655C1580.36 549.655 1575.86 533.468 1575.86 513.5C1575.86 513.333 1575.86 513.166 1575.86 513L1575.86 512.767C1575.86 512.678 1575.86 512.59 1575.86 512.501C1575.86 492.532 1580.36 476.345 1585.91 476.345Z" fill="black"/>
<path d="M1616.67 482.004C1622.07 482.004 1626.44 495.658 1626.44 512.501C1626.44 512.637 1626.44 512.774 1626.44 512.91L1626.44 513C1626.44 513.166 1626.44 513.333 1626.44 513.5C1626.44 530.342 1622.07 543.996 1616.67 543.996C1611.27 543.996 1606.9 530.342 1606.9 513.5C1606.9 513.363 1606.9 513.226 1606.9 513.09L1606.9 513C1606.9 512.834 1606.9 512.667 1606.9 512.501C1606.9 495.658 1611.27 482.004 1616.67 482.004Z" fill="black"/>
<path d="M1644.76 489.235C1648.96 489.235 1652.37 499.651 1652.37 512.501C1652.37 512.667 1652.36 512.834 1652.36 513C1652.36 513.166 1652.37 513.333 1652.37 513.5C1652.37 526.349 1648.96 536.765 1644.76 536.765C1640.55 536.765 1637.15 526.349 1637.15 513.5C1637.15 513.333 1637.15 513.166 1637.15 513C1637.15 512.834 1637.15 512.667 1637.15 512.501C1637.15 499.651 1640.55 489.235 1644.76 489.235Z" fill="black"/>
<path d="M1666.95 493.4C1671.16 493.4 1674.56 501.951 1674.56 512.501C1674.56 512.668 1674.56 512.834 1674.56 513C1674.56 513.166 1674.56 513.333 1674.56 513.5C1674.56 524.049 1671.16 532.6 1666.95 532.601C1662.75 532.601 1659.34 524.049 1659.34 513.5C1659.34 513.333 1659.34 513.166 1659.35 513L1659.34 512.787C1659.34 512.692 1659.34 512.596 1659.34 512.501C1659.34 501.951 1662.75 493.4 1666.95 493.4Z" fill="black"/>
<path d="M1690.14 497.035C1694.34 497.035 1697.75 503.959 1697.75 512.501C1697.75 512.668 1697.75 512.834 1697.75 513C1697.75 513.166 1697.75 513.332 1697.75 513.5C1697.75 522.041 1694.34 528.965 1690.14 528.966C1685.93 528.966 1682.52 522.041 1682.52 513.5C1682.52 513.332 1682.52 513.166 1682.53 513C1682.52 512.834 1682.52 512.668 1682.52 512.501C1682.52 503.959 1685.93 497.035 1690.14 497.035Z" fill="black"/>
<path d="M1714 500.918C1717.79 500.918 1720.87 506.104 1720.87 512.501C1720.87 512.668 1720.86 512.834 1720.86 513C1720.86 513.166 1720.87 513.332 1720.87 513.5C1720.87 519.896 1717.79 525.082 1714 525.082C1710.21 525.082 1707.14 519.896 1707.14 513.5C1707.14 513.332 1707.14 513.166 1707.14 513C1707.14 512.834 1707.14 512.668 1707.14 512.501C1707.14 506.104 1710.21 500.918 1714 500.918Z" fill="black"/>
<path d="M1737.85 504.137C1741.73 504.137 1744.88 508.011 1744.88 512.789C1744.88 512.86 1744.88 512.93 1744.87 513C1744.88 513.07 1744.88 513.14 1744.88 513.211C1744.88 517.989 1741.73 521.863 1737.85 521.863C1733.97 521.863 1730.82 517.989 1730.82 513.211C1730.82 513.14 1730.82 513.07 1730.82 513C1730.82 512.93 1730.82 512.86 1730.82 512.789C1730.82 508.011 1733.97 504.137 1737.85 504.137Z" fill="black"/>
<path d="M1760.57 504.396C1764.44 504.396 1767.58 508.244 1767.6 513C1767.58 517.756 1764.44 521.604 1760.57 521.604C1756.7 521.604 1753.56 517.756 1753.54 513C1753.56 508.244 1756.7 504.396 1760.57 504.396Z" fill="black"/>
<path d="M1784.35 500.918C1788.24 500.918 1791.39 506.104 1791.39 512.501C1791.39 512.668 1791.39 512.834 1791.39 513C1791.39 513.166 1791.39 513.332 1791.39 513.5C1791.39 519.896 1788.24 525.082 1784.35 525.082C1780.45 525.082 1777.3 519.896 1777.3 513.5C1777.3 513.332 1777.3 513.166 1777.3 513C1777.3 512.834 1777.3 512.668 1777.3 512.501C1777.3 506.104 1780.45 500.918 1784.35 500.918Z" fill="black"/>
<path d="M1808.09 492.306C1812.54 492.306 1816.15 501.347 1816.15 512.501C1816.15 512.6 1816.15 512.7 1816.14 512.799L1816.14 513C1816.14 513.166 1816.15 513.333 1816.15 513.5C1816.15 524.653 1812.54 533.694 1808.09 533.694C1803.64 533.694 1800.04 524.653 1800.04 513.5C1800.04 513.333 1800.04 513.166 1800.04 513L1800.04 512.731L1800.04 512.501C1800.04 501.347 1803.64 492.306 1808.09 492.306Z" fill="black"/>
<path d="M1346.1 512.83C1346.1 451.505 1337.8 401.792 1327.57 401.792C1317.34 401.792 1309.04 451.505 1309.04 512.83M1346.1 512.83C1346.1 512.887 1346.1 512.943 1346.1 513M1346.1 512.83L1346.1 513M1346.1 513C1346.1 513.057 1346.1 513.114 1346.1 513.17M1346.1 513L1346.1 513.17M1309.04 513C1309.04 512.943 1309.04 512.887 1309.04 512.83M1309.04 513C1309.04 513.057 1309.04 513.114 1309.04 513.17M1309.04 513L1309.04 513.17M1309.04 513L1309.04 512.83M1382.94 513C1382.94 512.834 1382.94 512.667 1382.94 512.501C1382.94 460.053 1375.92 417.535 1367.26 417.534C1358.6 417.534 1351.58 460.052 1351.58 512.501M1382.94 513L1382.94 513.23M1382.94 513C1382.94 513.077 1382.94 513.154 1382.94 513.23M1351.58 513L1351.58 513.155M1351.58 513L1351.58 512.786M1351.58 513C1351.58 513.052 1351.58 513.103 1351.58 513.155M1351.58 513C1351.58 512.929 1351.58 512.857 1351.58 512.786M1351.58 512.501L1351.58 512.786M1351.58 512.501C1351.58 512.596 1351.58 512.691 1351.58 512.786M1504.51 512.501C1504.51 480.997 1500.01 455.459 1494.46 455.458C1488.92 455.458 1484.42 480.997 1484.42 512.501M1504.51 512.501L1504.51 512.801M1504.51 512.501C1504.51 512.601 1504.51 512.701 1504.51 512.801M1504.51 513C1504.51 513.166 1504.51 513.333 1504.51 513.5C1504.51 545.003 1500.01 570.541 1494.46 570.542C1488.92 570.542 1484.42 545.003 1484.42 513.5C1484.42 513.333 1484.42 513.166 1484.42 513M1504.51 513L1504.51 512.801M1504.51 513C1504.51 512.934 1504.51 512.867 1504.51 512.801M1484.42 513L1484.42 512.801M1484.42 513C1484.42 512.934 1484.42 512.867 1484.42 512.801M1484.42 512.501L1484.42 512.801M1484.42 512.501C1484.42 512.601 1484.42 512.701 1484.42 512.801M1535.88 513L1535.88 512.765M1535.88 513L1535.88 513.199M1535.88 513C1535.88 513.066 1535.88 513.133 1535.88 513.199M1535.88 513C1535.88 512.922 1535.88 512.843 1535.88 512.765M1515.79 513C1515.79 513.166 1515.79 513.333 1515.79 513.5C1515.79 541.159 1520.29 563.582 1525.84 563.582C1531.38 563.581 1535.88 541.159 1535.88 513.5C1535.88 513.399 1535.88 513.299 1535.88 513.199M1515.79 513L1515.79 512.827M1515.79 513C1515.79 512.942 1515.79 512.885 1515.79 512.827M1565.96 513L1565.96 512.834M1565.96 513L1565.96 513.166M1565.96 513C1565.96 513.055 1565.96 513.111 1565.96 513.166M1565.96 513C1565.96 512.945 1565.96 512.889 1565.96 512.834M1545.87 513C1545.87 513.166 1545.87 513.333 1545.87 513.5C1545.87 536.977 1550.36 556.008 1555.91 556.008C1561.46 556.008 1565.96 536.976 1565.96 513.5C1565.96 513.388 1565.96 513.277 1565.96 513.166M1545.87 513L1545.87 512.834M1545.87 513C1545.87 512.945 1545.87 512.889 1545.87 512.834M1595.95 513C1595.95 512.834 1595.95 512.667 1595.95 512.501C1595.95 492.533 1591.45 476.346 1585.91 476.345C1580.36 476.345 1575.86 492.532 1575.86 512.501C1575.86 512.59 1575.86 512.678 1575.86 512.767M1595.95 513L1595.95 513.176M1595.95 513C1595.95 513.059 1595.95 513.117 1595.95 513.176M1575.86 513C1575.86 513.166 1575.86 513.333 1575.86 513.5C1575.86 533.468 1580.36 549.655 1585.91 549.655C1591.45 549.654 1595.95 533.467 1595.95 513.5C1595.95 513.391 1595.95 513.284 1595.95 513.176M1575.86 513L1575.86 512.767M1575.86 513C1575.86 512.923 1575.86 512.845 1575.86 512.767M1626.44 513C1626.44 513.166 1626.44 513.333 1626.44 513.5C1626.44 530.342 1622.07 543.996 1616.67 543.996C1611.27 543.996 1606.9 530.342 1606.9 513.5C1606.9 513.363 1606.9 513.226 1606.9 513.09M1626.44 513L1626.44 512.91M1626.44 513C1626.44 512.97 1626.44 512.94 1626.44 512.91M1606.9 513C1606.9 512.834 1606.9 512.667 1606.9 512.501C1606.9 495.658 1611.27 482.004 1616.67 482.004C1622.07 482.004 1626.44 495.658 1626.44 512.501C1626.44 512.637 1626.44 512.774 1626.44 512.91M1606.9 513L1606.9 513.09M1606.9 513C1606.9 513.03 1606.9 513.06 1606.9 513.09M1659.35 513C1659.34 513.166 1659.34 513.333 1659.34 513.5C1659.34 524.049 1662.75 532.601 1666.95 532.601C1671.16 532.6 1674.56 524.049 1674.56 513.5C1674.56 513.333 1674.56 513.166 1674.56 513C1674.56 512.834 1674.56 512.668 1674.56 512.501C1674.56 501.951 1671.16 493.4 1666.95 493.4C1662.75 493.4 1659.34 501.951 1659.34 512.501C1659.34 512.596 1659.34 512.692 1659.34 512.787M1659.35 513L1659.34 512.787M1659.35 513C1659.34 512.929 1659.34 512.858 1659.34 512.787M1816.14 513C1816.14 513.166 1816.15 513.333 1816.15 513.5C1816.15 524.653 1812.54 533.694 1808.09 533.694C1803.64 533.694 1800.04 524.653 1800.04 513.5C1800.04 513.333 1800.04 513.166 1800.04 513M1816.14 513L1816.14 512.799M1816.14 513C1816.14 512.933 1816.14 512.866 1816.14 512.799M1800.04 513L1800.04 512.731M1800.04 513C1800.04 512.91 1800.04 512.821 1800.04 512.731M1800.04 512.501C1800.04 501.347 1803.64 492.306 1808.09 492.306C1812.54 492.306 1816.15 501.347 1816.15 512.501C1816.15 512.6 1816.15 512.7 1816.14 512.799M1800.04 512.501L1800.04 512.731M1800.04 512.501C1800.04 512.577 1800.04 512.654 1800.04 512.731M2114 512.834C2042.83 509.837 2024.44 504.414 1983.61 480.338C1929.84 448.621 1921.67 383.161 1915.98 326.708L1915 307.5L1913.99 328.175C1911.81 360.487 1906.5 383.639 1896.28 414.369C1894.43 419.918 1887.37 440.228 1883.73 443.285C1881.49 445.183 1879.52 443.265 1877.11 444.064C1868.92 446.781 1868.59 464.399 1866.04 471.552C1865.57 472.849 1865.32 474.13 1864.27 474.567C1863.57 474.858 1862.78 473.141 1862.2 471.552C1860.41 466.596 1858.28 463.717 1855.98 463.717C1850.42 463.717 1845.78 480.652 1844.75 503.093C1844.67 504.891 1844.23 506.818 1843.03 507.368C1842.11 507.79 1841.03 505.541 1840.8 503.093C1839.61 490.416 1836.07 481.223 1831.89 481.222C1826.73 481.222 1822.54 495.226 1822.54 512.501C1822.54 512.667 1822.54 512.834 1822.54 513M2114 512.834C2114 512.917 2114 513 2114 513.083M2114 512.834L2114 513.083M2114 512.834H2312V513.333H2114M2114 513.083C2114 513.167 2114 513.25 2114 513.333M2114 513.083L2114 513.333M1822.54 513L1822.54 513.142M1822.54 513C1822.54 513.047 1822.54 513.095 1822.54 513.142M1346.1 513.17C1346.1 574.495 1337.8 624.208 1327.57 624.208C1317.34 624.208 1309.04 574.495 1309.04 513.17M1382.94 513.5C1382.94 565.947 1375.92 608.465 1367.26 608.466C1358.6 608.466 1351.58 565.948 1351.58 513.5C1351.58 513.385 1351.58 513.27 1351.58 513.155M1382.94 513.5L1382.94 513.23M1382.94 513.5C1382.94 513.41 1382.94 513.32 1382.94 513.23M2114 513.333C2042.83 516.33 2024.44 521.586 1983.61 545.662C1929.84 577.379 1921.67 642.839 1915.98 699.292L1915 715L1913.99 697.825C1911.81 665.513 1906.5 642.361 1896.28 611.631C1894.43 606.082 1887.37 585.772 1883.73 582.715C1881.49 580.817 1879.52 582.735 1877.11 581.936C1868.92 579.219 1868.59 561.601 1866.04 554.448C1865.57 553.151 1865.32 551.87 1864.27 551.433C1863.57 551.142 1862.78 552.859 1862.2 554.448C1860.41 559.404 1858.28 562.283 1855.98 562.283C1850.42 562.283 1845.78 545.348 1844.75 522.907C1844.67 521.109 1844.23 519.182 1843.03 518.632C1842.11 518.21 1841.03 520.459 1840.8 522.907C1839.61 535.584 1836.07 544.777 1831.89 544.778C1826.73 544.778 1822.54 530.774 1822.54 513.5C1822.54 513.38 1822.54 513.261 1822.54 513.142M1535.88 512.765C1535.88 512.677 1535.88 512.589 1535.88 512.501C1535.88 484.841 1531.38 462.419 1525.84 462.418C1520.29 462.418 1515.79 484.841 1515.79 512.501C1515.79 512.61 1515.79 512.718 1515.79 512.827M1565.96 512.834C1565.96 512.723 1565.96 512.612 1565.96 512.501C1565.96 489.024 1561.46 469.992 1555.91 469.992C1550.36 469.992 1545.87 489.023 1545.87 512.501C1545.87 512.612 1545.87 512.723 1545.87 512.834M821.08 7C825.67 22.0649 833.824 42.6004 839.084 57.4355C842.071 65.8621 850.383 96.9309 855.103 101.356C862.296 108.1 872.62 97.6755 879.498 94.8883C929.588 74.6286 962.051 163.135 973.2 198.045C978.419 214.399 981.511 232.451 986.901 248.28C994.748 271.312 1000.94 253.519 1009.38 243.754C1039.03 209.474 1059.42 259.239 1067.55 283.515C1070.98 293.749 1072.9 306.377 1077.07 315.952C1085.89 336.202 1092.4 309.828 1097.4 301.791C1101.9 294.544 1107.46 288.525 1116.63 291.382C1134.19 296.857 1139.78 349.399 1146.03 364.878C1149.38 373.2 1151.56 374.164 1155.61 365.992C1159.72 357.691 1167.16 315.807 1183.73 332.166C1196.04 344.319 1200.69 406.236 1205 425.782C1205.57 428.379 1206.25 432.271 1207.2 434.569C1210.86 443.375 1213.43 429.029 1214.23 425.612C1217.88 409.908 1220.12 375.233 1227.65 363.11C1237.51 347.241 1245.8 367.231 1248.17 376.616C1255.45 405.393 1254.23 437.76 1260.74 465.942C1260.99 467.036 1262.38 472.421 1264.13 471.521C1265.81 470.078 1265.92 467.765 1266.36 465.752C1269.94 449.219 1271.74 398.34 1279.2 387.685C1291.09 370.708 1295.54 405.683 1296.48 412.216C1300.1 437.261 1301.45 462.97 1303.09 488.025C1303.64 496.25 1303.93 504.588 1304.01 513C1303.93 521.412 1303.64 529.75 1303.09 537.975C1301.45 563.03 1300.1 588.739 1296.48 613.784C1295.54 620.317 1291.09 655.292 1279.2 638.315C1271.74 627.66 1269.94 576.781 1266.36 560.248C1265.92 558.235 1265.81 555.922 1264.13 554.479C1262.38 553.579 1260.99 558.964 1260.74 560.058C1254.23 588.24 1255.45 620.607 1248.17 649.384C1245.8 658.769 1237.51 678.759 1227.65 662.89C1220.12 650.767 1217.88 616.092 1214.23 600.388C1213.43 596.971 1210.86 582.625 1207.2 591.431C1206.25 593.729 1205.57 597.621 1205 600.218C1200.69 619.764 1196.04 681.681 1183.73 693.834C1167.16 710.193 1159.72 668.31 1155.61 660.008C1151.56 651.836 1149.38 652.8 1146.03 661.122C1139.78 676.601 1134.19 729.143 1116.63 734.618C1107.46 737.475 1101.9 731.456 1097.4 724.209C1092.4 716.172 1085.89 689.798 1077.07 710.048C1072.9 719.623 1070.98 732.251 1067.55 742.485C1059.42 766.761 1039.03 816.526 1009.38 782.246C1000.94 772.481 994.748 754.688 986.901 777.72C981.511 793.549 978.419 811.601 973.2 827.955C962.051 862.865 929.588 951.371 879.498 931.112C872.62 928.324 862.296 917.9 855.103 924.644C850.383 929.069 842.071 960.138 839.084 968.564C833.824 983.4 825.67 1003.94 821.08 1019L-62.5 1019.67L-60.5 513.67L-62.5 7.66987L821.08 7ZM1400.16 429.683C1406.59 427.581 1408.42 442.256 1409.2 446.357C1412.99 466.252 1414.63 489.722 1414.52 513C1414.63 536.278 1412.99 559.748 1409.2 579.643C1408.42 583.744 1406.59 598.419 1400.16 596.317C1395.57 594.808 1392.26 568.035 1391.64 562.825C1389.77 547.333 1388.67 530.261 1388.58 513C1388.67 495.739 1389.77 478.667 1391.64 463.175C1392.26 457.965 1395.57 431.192 1400.16 429.683ZM1432.13 438.674C1433.46 438.32 1434.07 438.579 1434.98 439.558C1437.05 441.771 1439.75 456.352 1440.33 460.188C1442.75 476.42 1443.71 495.04 1443.63 513C1443.71 530.96 1442.75 549.58 1440.33 565.812C1439.75 569.648 1437.05 584.229 1434.98 586.442C1434.07 587.421 1433.46 587.68 1432.13 587.326C1429 586.496 1426.43 574.813 1425.77 571.646C1422.45 555.526 1421.11 533.917 1421.22 513C1421.11 492.083 1422.45 470.474 1425.77 454.354C1426.43 451.187 1429 439.504 1432.13 438.674ZM1462.09 446.676C1466.46 445.263 1467.7 450.957 1468.58 453.914C1472.04 465.525 1473.87 489.249 1473.87 513C1473.87 536.751 1472.04 560.475 1468.58 572.086C1467.7 575.043 1466.46 580.737 1462.09 579.324V579.318C1460.15 578.694 1458.8 573.25 1458.18 571.197C1454.58 559.192 1452.96 535.895 1452.96 513C1452.96 490.105 1454.58 466.808 1458.18 454.803C1458.8 452.75 1460.15 447.306 1462.09 446.682V446.676ZM1644.76 489.235C1648.96 489.235 1652.37 499.651 1652.37 512.501C1652.37 512.667 1652.36 512.834 1652.36 513C1652.36 513.166 1652.37 513.333 1652.37 513.5C1652.37 526.349 1648.96 536.765 1644.76 536.765C1640.55 536.765 1637.15 526.349 1637.15 513.5C1637.15 513.333 1637.15 513.166 1637.15 513C1637.15 512.834 1637.15 512.667 1637.15 512.501C1637.15 499.651 1640.55 489.235 1644.76 489.235ZM1690.14 497.035C1694.34 497.035 1697.75 503.959 1697.75 512.501C1697.75 512.668 1697.75 512.834 1697.75 513C1697.75 513.166 1697.75 513.332 1697.75 513.5C1697.75 522.041 1694.34 528.965 1690.14 528.966C1685.93 528.966 1682.52 522.041 1682.52 513.5C1682.52 513.332 1682.52 513.166 1682.53 513C1682.52 512.834 1682.52 512.668 1682.52 512.501C1682.52 503.959 1685.93 497.035 1690.14 497.035ZM1714 500.918C1717.79 500.918 1720.87 506.104 1720.87 512.501C1720.87 512.668 1720.86 512.834 1720.86 513C1720.86 513.166 1720.87 513.332 1720.87 513.5C1720.87 519.896 1717.79 525.082 1714 525.082C1710.21 525.082 1707.14 519.896 1707.14 513.5C1707.14 513.332 1707.14 513.166 1707.14 513C1707.14 512.834 1707.14 512.668 1707.14 512.501C1707.14 506.104 1710.21 500.918 1714 500.918ZM1737.85 504.137C1741.73 504.137 1744.88 508.011 1744.88 512.789C1744.88 512.86 1744.88 512.93 1744.87 513C1744.88 513.07 1744.88 513.14 1744.88 513.211C1744.88 517.989 1741.73 521.863 1737.85 521.863C1733.97 521.863 1730.82 517.989 1730.82 513.211C1730.82 513.14 1730.82 513.07 1730.82 513C1730.82 512.93 1730.82 512.86 1730.82 512.789C1730.82 508.011 1733.97 504.137 1737.85 504.137ZM1760.57 504.396C1764.44 504.396 1767.58 508.244 1767.6 513C1767.58 517.756 1764.44 521.604 1760.57 521.604C1756.7 521.604 1753.56 517.756 1753.54 513C1753.56 508.244 1756.7 504.396 1760.57 504.396ZM1784.35 500.918C1788.24 500.918 1791.39 506.104 1791.39 512.501C1791.39 512.668 1791.39 512.834 1791.39 513C1791.39 513.166 1791.39 513.332 1791.39 513.5C1791.39 519.896 1788.24 525.082 1784.35 525.082C1780.45 525.082 1777.3 519.896 1777.3 513.5C1777.3 513.332 1777.3 513.166 1777.3 513C1777.3 512.834 1777.3 512.668 1777.3 512.501C1777.3 506.104 1780.45 500.918 1784.35 500.918Z" stroke="#A0A0A0" stroke-width="2"/>
</mask>
<g mask="url(#mask0_67_1856)">
<path d="M1915.98 326.708C1921.67 383.161 1929.84 448.621 1983.61 480.338C2024.44 504.414 2042.83 509.837 2114 512.834L2114 513.083L2114 513.333C2042.83 516.33 2024.44 521.586 1983.61 545.662C1929.84 577.379 1921.67 642.839 1915.98 699.292L1913.99 697.825C1911.81 665.513 1906.5 642.361 1896.28 611.631C1894.43 606.082 1887.37 585.772 1883.73 582.715C1881.49 580.817 1879.52 582.735 1877.11 581.936C1868.92 579.219 1868.59 561.601 1866.04 554.448C1865.57 553.151 1865.32 551.87 1864.27 551.433C1863.57 551.142 1862.78 552.859 1862.2 554.448C1860.41 559.404 1858.28 562.283 1855.98 562.283C1850.42 562.283 1845.78 545.348 1844.75 522.907C1844.67 521.109 1844.23 519.182 1843.03 518.632C1842.11 518.21 1841.03 520.459 1840.8 522.907C1839.61 535.584 1836.07 544.777 1831.89 544.778C1826.73 544.778 1822.54 530.774 1822.54 513.5C1822.54 513.38 1822.54 513.261 1822.54 513.142L1822.54 513C1822.54 512.834 1822.54 512.667 1822.54 512.501C1822.54 495.226 1826.73 481.222 1831.89 481.222C1836.07 481.223 1839.61 490.416 1840.8 503.093C1841.03 505.541 1842.11 507.79 1843.03 507.368C1844.23 506.818 1844.67 504.891 1844.75 503.093C1845.78 480.652 1850.42 463.717 1855.98 463.717C1858.28 463.717 1860.41 466.596 1862.2 471.552C1862.78 473.141 1863.57 474.858 1864.27 474.567C1865.32 474.13 1865.57 472.849 1866.04 471.552C1868.59 464.399 1868.92 446.781 1877.11 444.064C1879.52 443.265 1881.49 445.183 1883.73 443.285C1887.37 440.228 1894.43 419.918 1896.28 414.369C1906.5 383.639 1911.81 360.487 1913.99 328.175L1915.98 326.708Z" fill="url(#paint18_linear_67_1856)"/>
<path d="M1367.26 417.534C1375.92 417.535 1382.94 460.053 1382.94 512.501C1382.94 512.667 1382.94 512.834 1382.94 513L1382.94 513.23L1382.94 513.5C1382.94 565.947 1375.92 608.465 1367.26 608.466C1358.6 608.466 1351.58 565.948 1351.58 513.5C1351.58 513.385 1351.58 513.27 1351.58 513.155L1351.58 513L1351.58 512.786L1351.58 512.501C1351.58 460.052 1358.6 417.534 1367.26 417.534Z" fill="url(#paint19_linear_67_1856)"/>
<path d="M1400.16 429.683C1406.59 427.581 1408.42 442.256 1409.2 446.357C1412.99 466.252 1414.63 489.722 1414.52 513C1414.63 536.278 1412.99 559.748 1409.2 579.643C1408.42 583.744 1406.59 598.419 1400.16 596.317C1395.57 594.808 1392.26 568.035 1391.64 562.825C1389.77 547.333 1388.67 530.261 1388.58 513C1388.67 495.739 1389.77 478.667 1391.64 463.175C1392.26 457.965 1395.57 431.192 1400.16 429.683Z" fill="url(#paint20_linear_67_1856)"/>
<path d="M1432.13 438.674C1433.46 438.32 1434.07 438.579 1434.98 439.558C1437.05 441.771 1439.75 456.352 1440.33 460.188C1442.75 476.42 1443.71 495.04 1443.63 513C1443.71 530.96 1442.75 549.58 1440.33 565.812C1439.75 569.648 1437.05 584.229 1434.98 586.442C1434.07 587.421 1433.46 587.68 1432.13 587.326C1429 586.496 1426.43 574.813 1425.77 571.646C1422.45 555.526 1421.11 533.917 1421.22 513C1421.11 492.083 1422.45 470.474 1425.77 454.354C1426.43 451.187 1429 439.504 1432.13 438.674Z" fill="url(#paint21_linear_67_1856)"/>
<path d="M1462.09 446.676C1466.46 445.263 1467.7 450.957 1468.58 453.914C1472.04 465.525 1473.87 489.249 1473.87 513C1473.87 536.751 1472.04 560.475 1468.58 572.086C1467.7 575.043 1466.46 580.737 1462.09 579.324V579.318C1460.15 578.694 1458.8 573.25 1458.18 571.197C1454.58 559.192 1452.96 535.895 1452.96 513C1452.96 490.105 1454.58 466.808 1458.18 454.803C1458.8 452.75 1460.15 447.306 1462.09 446.682V446.676Z" fill="url(#paint22_linear_67_1856)"/>
<path d="M1494.46 455.458C1500.01 455.459 1504.51 480.997 1504.51 512.501L1504.51 512.801L1504.51 513C1504.51 513.166 1504.51 513.333 1504.51 513.5C1504.51 545.003 1500.01 570.541 1494.46 570.542C1488.92 570.542 1484.42 545.003 1484.42 513.5C1484.42 513.333 1484.42 513.166 1484.42 513L1484.42 512.801L1484.42 512.501C1484.42 480.997 1488.92 455.458 1494.46 455.458Z" fill="url(#paint23_linear_67_1856)"/>
<path d="M1525.84 462.418C1531.38 462.419 1535.88 484.841 1535.88 512.501C1535.88 512.589 1535.88 512.677 1535.88 512.765L1535.88 513L1535.88 513.199C1535.88 513.299 1535.88 513.399 1535.88 513.5C1535.88 541.159 1531.38 563.581 1525.84 563.582C1520.29 563.582 1515.79 541.159 1515.79 513.5C1515.79 513.333 1515.79 513.166 1515.79 513L1515.79 512.827C1515.79 512.718 1515.79 512.61 1515.79 512.501C1515.79 484.841 1520.29 462.418 1525.84 462.418Z" fill="url(#paint24_linear_67_1856)"/>
<path d="M1555.91 469.992C1561.46 469.992 1565.96 489.024 1565.96 512.501C1565.96 512.612 1565.96 512.723 1565.96 512.834L1565.96 513L1565.96 513.166C1565.96 513.277 1565.96 513.388 1565.96 513.5C1565.96 536.976 1561.46 556.008 1555.91 556.008C1550.36 556.008 1545.87 536.977 1545.87 513.5C1545.87 513.333 1545.87 513.166 1545.87 513L1545.87 512.834C1545.87 512.723 1545.87 512.612 1545.87 512.501C1545.87 489.023 1550.36 469.992 1555.91 469.992Z" fill="url(#paint25_linear_67_1856)"/>
<path d="M1585.91 476.345C1591.45 476.346 1595.95 492.533 1595.95 512.501C1595.95 512.667 1595.95 512.834 1595.95 513L1595.95 513.176C1595.95 513.284 1595.95 513.391 1595.95 513.5C1595.95 533.467 1591.45 549.654 1585.91 549.655C1580.36 549.655 1575.86 533.468 1575.86 513.5C1575.86 513.333 1575.86 513.166 1575.86 513L1575.86 512.767C1575.86 512.678 1575.86 512.59 1575.86 512.501C1575.86 492.532 1580.36 476.345 1585.91 476.345Z" fill="url(#paint26_linear_67_1856)"/>
<path d="M1616.67 482.004C1622.07 482.004 1626.44 495.658 1626.44 512.501C1626.44 512.637 1626.44 512.774 1626.44 512.91L1626.44 513C1626.44 513.166 1626.44 513.333 1626.44 513.5C1626.44 530.342 1622.07 543.996 1616.67 543.996C1611.27 543.996 1606.9 530.342 1606.9 513.5C1606.9 513.363 1606.9 513.226 1606.9 513.09L1606.9 513C1606.9 512.834 1606.9 512.667 1606.9 512.501C1606.9 495.658 1611.27 482.004 1616.67 482.004Z" fill="url(#paint27_linear_67_1856)"/>
<path d="M1644.76 489.235C1648.96 489.235 1652.37 499.651 1652.37 512.501C1652.37 512.667 1652.36 512.834 1652.36 513C1652.36 513.166 1652.37 513.333 1652.37 513.5C1652.37 526.349 1648.96 536.765 1644.76 536.765C1640.55 536.765 1637.15 526.349 1637.15 513.5C1637.15 513.333 1637.15 513.166 1637.15 513C1637.15 512.834 1637.15 512.667 1637.15 512.501C1637.15 499.651 1640.55 489.235 1644.76 489.235Z" fill="url(#paint28_linear_67_1856)"/>
<path d="M1666.95 493.4C1671.16 493.4 1674.56 501.951 1674.56 512.501C1674.56 512.668 1674.56 512.834 1674.56 513C1674.56 513.166 1674.56 513.333 1674.56 513.5C1674.56 524.049 1671.16 532.6 1666.95 532.601C1662.75 532.601 1659.34 524.049 1659.34 513.5C1659.34 513.333 1659.34 513.166 1659.35 513L1659.34 512.787C1659.34 512.692 1659.34 512.596 1659.34 512.501C1659.34 501.951 1662.75 493.4 1666.95 493.4Z" fill="url(#paint29_linear_67_1856)"/>
<path d="M1690.14 497.035C1694.34 497.035 1697.75 503.959 1697.75 512.501C1697.75 512.668 1697.75 512.834 1697.75 513C1697.75 513.166 1697.75 513.332 1697.75 513.5C1697.75 522.041 1694.34 528.965 1690.14 528.966C1685.93 528.966 1682.52 522.041 1682.52 513.5C1682.52 513.332 1682.52 513.166 1682.53 513C1682.52 512.834 1682.52 512.668 1682.52 512.501C1682.52 503.959 1685.93 497.035 1690.14 497.035Z" fill="url(#paint30_linear_67_1856)"/>
<path d="M1714 500.918C1717.79 500.918 1720.87 506.104 1720.87 512.501C1720.87 512.668 1720.86 512.834 1720.86 513C1720.86 513.166 1720.87 513.332 1720.87 513.5C1720.87 519.896 1717.79 525.082 1714 525.082C1710.21 525.082 1707.14 519.896 1707.14 513.5C1707.14 513.332 1707.14 513.166 1707.14 513C1707.14 512.834 1707.14 512.668 1707.14 512.501C1707.14 506.104 1710.21 500.918 1714 500.918Z" fill="url(#paint31_linear_67_1856)"/>
<path d="M1737.85 504.137C1741.73 504.137 1744.88 508.011 1744.88 512.789C1744.88 512.86 1744.88 512.93 1744.87 513C1744.88 513.07 1744.88 513.14 1744.88 513.211C1744.88 517.989 1741.73 521.863 1737.85 521.863C1733.97 521.863 1730.82 517.989 1730.82 513.211C1730.82 513.14 1730.82 513.07 1730.82 513C1730.82 512.93 1730.82 512.86 1730.82 512.789C1730.82 508.011 1733.97 504.137 1737.85 504.137Z" fill="url(#paint32_linear_67_1856)"/>
<path d="M1760.57 504.396C1764.44 504.396 1767.58 508.244 1767.6 513C1767.58 517.756 1764.44 521.604 1760.57 521.604C1756.7 521.604 1753.56 517.756 1753.54 513C1753.56 508.244 1756.7 504.396 1760.57 504.396Z" fill="url(#paint33_linear_67_1856)"/>
<path d="M1784.35 500.918C1788.24 500.918 1791.39 506.104 1791.39 512.501C1791.39 512.668 1791.39 512.834 1791.39 513C1791.39 513.166 1791.39 513.332 1791.39 513.5C1791.39 519.896 1788.24 525.082 1784.35 525.082C1780.45 525.082 1777.3 519.896 1777.3 513.5C1777.3 513.332 1777.3 513.166 1777.3 513C1777.3 512.834 1777.3 512.668 1777.3 512.501C1777.3 506.104 1780.45 500.918 1784.35 500.918Z" fill="url(#paint34_linear_67_1856)"/>
<path d="M1808.09 492.306C1812.54 492.306 1816.15 501.347 1816.15 512.501C1816.15 512.6 1816.15 512.7 1816.14 512.799L1816.14 513C1816.14 513.166 1816.15 513.333 1816.15 513.5C1816.15 524.653 1812.54 533.694 1808.09 533.694C1803.64 533.694 1800.04 524.653 1800.04 513.5C1800.04 513.333 1800.04 513.166 1800.04 513L1800.04 512.731L1800.04 512.501C1800.04 501.347 1803.64 492.306 1808.09 492.306Z" fill="url(#paint35_linear_67_1856)"/>
<path d="M1327.57 401.792C1337.8 401.792 1346.1 451.505 1346.1 512.83L1346.1 513L1346.1 513.17C1346.1 574.495 1337.8 624.208 1327.57 624.208C1317.34 624.208 1309.04 574.495 1309.04 513.17L1309.04 513L1309.04 512.83C1309.04 451.505 1317.34 401.792 1327.57 401.792Z" fill="url(#paint36_linear_67_1856)"/>
<path d="M821.08 7C825.67 22.0649 833.824 42.6004 839.084 57.4355C842.071 65.8621 850.383 96.9309 855.103 101.356C862.296 108.1 872.62 97.6755 879.498 94.8883C929.588 74.6286 962.051 163.135 973.2 198.045C978.419 214.399 981.511 232.451 986.901 248.28C994.748 271.312 1000.94 253.519 1009.38 243.754C1039.03 209.474 1059.42 259.239 1067.55 283.515C1070.98 293.749 1072.9 306.377 1077.07 315.952C1085.89 336.202 1092.4 309.828 1097.4 301.791C1101.9 294.544 1107.46 288.525 1116.63 291.382C1134.19 296.857 1139.78 349.399 1146.03 364.878C1149.38 373.2 1151.56 374.164 1155.61 365.992C1159.72 357.691 1167.16 315.807 1183.73 332.166C1196.04 344.319 1200.69 406.236 1205 425.782C1205.57 428.379 1206.25 432.271 1207.2 434.569C1210.86 443.375 1213.43 429.029 1214.23 425.612C1217.88 409.908 1220.12 375.233 1227.65 363.11C1237.51 347.241 1245.8 367.231 1248.17 376.616C1255.45 405.393 1254.23 437.76 1260.74 465.942C1260.99 467.036 1262.38 472.421 1264.13 471.521C1265.81 470.078 1265.92 467.765 1266.36 465.752C1269.94 449.219 1271.74 398.34 1279.2 387.685C1291.09 370.708 1295.54 405.683 1296.48 412.216C1300.1 437.261 1301.45 462.97 1303.09 488.025C1303.64 496.25 1303.93 504.588 1304.01 513C1303.93 521.412 1303.64 529.75 1303.09 537.975C1301.45 563.03 1300.1 588.739 1296.48 613.784C1295.54 620.317 1291.09 655.292 1279.2 638.315C1271.74 627.66 1269.94 576.781 1266.36 560.248C1265.92 558.235 1265.81 555.922 1264.13 554.479C1262.38 553.579 1260.99 558.964 1260.74 560.058C1254.23 588.24 1255.45 620.607 1248.17 649.384C1245.8 658.769 1237.51 678.759 1227.65 662.89C1220.12 650.767 1217.88 616.092 1214.23 600.388C1213.43 596.971 1210.86 582.625 1207.2 591.431C1206.25 593.729 1205.57 597.621 1205 600.218C1200.69 619.764 1196.04 681.681 1183.73 693.834C1167.16 710.193 1159.72 668.31 1155.61 660.008C1151.56 651.836 1149.38 652.8 1146.03 661.122C1139.78 676.601 1134.19 729.143 1116.63 734.618C1107.46 737.475 1101.9 731.456 1097.4 724.209C1092.4 716.172 1085.89 689.798 1077.07 710.048C1072.9 719.623 1070.98 732.251 1067.55 742.485C1059.42 766.761 1039.03 816.526 1009.38 782.246C1000.94 772.481 994.748 754.688 986.901 777.72C981.511 793.549 978.419 811.601 973.2 827.955C962.051 862.865 929.588 951.371 879.498 931.112C872.62 928.324 862.296 917.9 855.103 924.644C850.383 929.069 842.071 960.138 839.084 968.564C833.824 983.4 825.67 1003.94 821.08 1019L-62 1019.4L-60 513.402L-62 7.40192L821.08 7Z" fill="url(#paint37_linear_67_1856)"/>
<rect x="-13" y="-9" width="1927" height="1045" fill="url(#paint38_linear_67_1856)"/>
<g filter="url(#filter0_d_67_1856)">
<path d="M1625.44 512.501C1625.44 504.154 1624.36 496.637 1622.63 491.241C1621.76 488.538 1620.75 486.422 1619.68 485.004C1618.59 483.57 1617.56 483.004 1616.67 483.004C1615.77 483.004 1614.75 483.57 1613.66 485.004C1612.59 486.422 1611.58 488.538 1610.71 491.241C1608.98 496.637 1607.9 504.154 1607.9 512.501C1607.9 512.664 1607.9 512.828 1607.9 512.995L1607.9 513.004L1607.9 513.097C1607.9 513.232 1607.9 513.366 1607.9 513.5C1607.9 521.847 1608.98 529.363 1610.71 534.759C1611.58 537.462 1612.59 539.578 1613.66 540.996C1614.75 542.43 1615.77 542.996 1616.67 542.996C1617.56 542.996 1618.59 542.43 1619.68 540.996C1620.75 539.578 1621.76 537.462 1622.63 534.759C1624.36 529.363 1625.44 521.847 1625.44 513.5C1625.44 513.337 1625.44 513.173 1625.44 513.005L1625.44 512.996L1625.44 512.903C1625.44 512.768 1625.44 512.634 1625.44 512.501ZM1651.37 512.501C1651.37 506.152 1650.52 500.446 1649.19 496.36C1648.52 494.312 1647.74 492.727 1646.93 491.675C1646.1 490.609 1645.36 490.235 1644.76 490.234C1644.15 490.234 1643.41 490.609 1642.59 491.675C1641.77 492.727 1641 494.312 1640.33 496.36C1638.99 500.446 1638.15 506.152 1638.15 512.501C1638.15 512.665 1638.15 512.829 1638.15 512.993V513.007C1638.15 513.172 1638.15 513.336 1638.15 513.5C1638.15 519.848 1638.99 525.555 1640.33 529.64C1641 531.688 1641.77 533.273 1642.59 534.325C1643.41 535.391 1644.15 535.766 1644.76 535.766C1645.36 535.765 1646.1 535.391 1646.93 534.325C1647.74 533.273 1648.52 531.688 1649.19 529.64C1650.52 525.555 1651.37 519.848 1651.37 513.5L1651.36 513.007L1651.36 512.993C1651.36 512.829 1651.37 512.665 1651.37 512.501ZM1673.56 512.501C1673.56 507.321 1672.72 502.676 1671.4 499.364C1670.74 497.705 1669.98 496.43 1669.19 495.586C1668.39 494.744 1667.64 494.399 1666.95 494.399C1666.27 494.4 1665.51 494.744 1664.72 495.586C1663.92 496.43 1663.16 497.705 1662.5 499.364C1661.18 502.676 1660.34 507.321 1660.34 512.501C1660.34 512.594 1660.34 512.687 1660.34 512.779L1660.35 512.992V513.01C1660.34 513.172 1660.34 513.336 1660.34 513.5C1660.34 518.68 1661.18 523.324 1662.5 526.636C1663.16 528.295 1663.92 529.57 1664.72 530.414C1665.51 531.256 1666.27 531.599 1666.95 531.6C1667.64 531.6 1668.39 531.256 1669.19 530.414C1669.98 529.57 1670.74 528.295 1671.4 526.636C1672.72 523.324 1673.56 518.68 1673.56 513.5C1673.56 513.336 1673.56 513.172 1673.56 513.01V512.99C1673.56 512.828 1673.56 512.665 1673.56 512.501ZM1696.75 512.501C1696.75 508.35 1695.92 504.64 1694.62 502.006C1693.29 499.308 1691.65 498.034 1690.14 498.034C1688.62 498.034 1686.98 499.308 1685.65 502.006C1684.35 504.64 1683.52 508.35 1683.52 512.501C1683.52 512.661 1683.52 512.822 1683.53 512.984V513.016C1683.52 513.178 1683.52 513.34 1683.52 513.5C1683.52 517.651 1684.35 521.36 1685.65 523.994C1686.98 526.692 1688.62 527.966 1690.14 527.966C1691.65 527.966 1693.29 526.692 1694.62 523.994C1695.92 521.36 1696.75 517.651 1696.75 513.5L1696.75 513.016V512.984C1696.75 512.822 1696.75 512.661 1696.75 512.501ZM1719.87 512.501C1719.87 509.451 1719.13 506.737 1718 504.82C1716.85 502.882 1715.4 501.918 1714 501.918C1712.6 501.918 1711.16 502.882 1710.01 504.82C1708.87 506.737 1708.14 509.451 1708.14 512.501C1708.14 512.658 1708.14 512.815 1708.14 512.975L1708.14 513L1708.14 513.025C1708.14 513.185 1708.14 513.343 1708.14 513.5C1708.14 516.55 1708.87 519.263 1710.01 521.18C1711.16 523.118 1712.6 524.082 1714 524.082C1715.4 524.082 1716.85 523.118 1718 521.18C1719.13 519.263 1719.87 516.55 1719.87 513.5L1719.86 513.025V512.975C1719.86 512.815 1719.87 512.658 1719.87 512.501ZM1790.39 512.501C1790.39 509.455 1789.64 506.745 1788.47 504.83C1787.3 502.897 1785.81 501.918 1784.34 501.918C1782.88 501.918 1781.39 502.897 1780.22 504.83C1779.05 506.745 1778.3 509.455 1778.3 512.501C1778.3 512.658 1778.3 512.817 1778.3 512.975L1778.3 513L1778.3 513.025C1778.3 513.184 1778.3 513.342 1778.3 513.5C1778.3 516.546 1779.05 519.255 1780.22 521.17C1781.39 523.103 1782.88 524.082 1784.34 524.082C1785.81 524.082 1787.3 523.103 1788.47 521.17C1789.64 519.255 1790.39 516.546 1790.39 513.5L1790.39 513.025L1790.38 513L1790.39 512.975C1790.39 512.816 1790.39 512.658 1790.39 512.501ZM1743.88 512.789C1743.88 508.359 1740.99 505.138 1737.85 505.138C1734.7 505.138 1731.82 508.359 1731.82 512.789C1731.82 512.85 1731.82 512.913 1731.82 512.98L1731.82 513L1731.82 513.02C1731.82 513.087 1731.82 513.15 1731.82 513.211C1731.82 517.641 1734.7 520.861 1737.85 520.861C1740.99 520.861 1743.88 517.641 1743.88 513.211C1743.88 513.15 1743.88 513.087 1743.88 513.02V512.98C1743.88 512.913 1743.88 512.85 1743.88 512.789ZM1760.57 503.396C1765.17 503.396 1768.57 507.892 1768.6 512.996V513.004C1768.57 518.107 1765.17 522.604 1760.57 522.604C1755.97 522.604 1752.56 518.108 1752.54 513.004V512.996C1752.56 507.892 1755.97 503.396 1760.57 503.396ZM1760.57 505.396C1757.43 505.396 1754.56 508.595 1754.54 513.004C1754.56 517.408 1757.43 520.604 1760.57 520.604C1763.7 520.604 1766.57 517.408 1766.6 513.004C1766.58 508.595 1763.7 505.396 1760.57 505.396ZM1745.88 513.02C1745.88 513.08 1745.88 513.145 1745.88 513.211C1745.88 518.337 1742.47 522.862 1737.85 522.862C1733.23 522.862 1729.82 518.337 1729.82 513.211C1729.82 513.132 1729.82 513.056 1729.82 512.984C1729.82 512.922 1729.82 512.856 1729.82 512.789C1729.82 507.663 1733.23 503.138 1737.85 503.138L1738.28 503.15C1742.68 503.421 1745.88 507.823 1745.88 512.789C1745.88 512.869 1745.88 512.947 1745.88 513.02ZM1627.44 512.916C1627.44 512.96 1627.44 512.956 1627.44 513.005C1627.44 513.166 1627.44 513.333 1627.44 513.5C1627.44 521.996 1626.34 529.727 1624.53 535.369C1623.63 538.184 1622.53 540.536 1621.27 542.204C1620.02 543.856 1618.47 544.996 1616.67 544.996C1614.86 544.996 1613.32 543.856 1612.07 542.204C1610.8 540.536 1609.71 538.184 1608.81 535.369C1607 529.727 1605.9 521.996 1605.9 513.5C1605.9 513.36 1605.9 513.221 1605.9 513.084L1605.9 513.005L1605.9 512.501C1605.9 504.005 1607 496.273 1608.81 490.631C1609.71 487.816 1610.8 485.464 1612.07 483.796C1613.32 482.144 1614.86 481.004 1616.67 481.004C1618.47 481.004 1620.02 482.144 1621.27 483.796C1622.53 485.464 1623.63 487.816 1624.53 490.631C1626.34 496.273 1627.44 504.005 1627.44 512.501C1627.44 512.641 1627.44 512.78 1627.44 512.916ZM1653.36 513.007C1653.36 513.17 1653.37 513.335 1653.37 513.5C1653.37 520 1652.51 525.927 1651.09 530.262C1650.38 532.424 1649.52 534.246 1648.51 535.549C1647.51 536.838 1646.25 537.765 1644.76 537.766C1643.26 537.766 1642 536.838 1641 535.549C1640 534.246 1639.13 532.424 1638.43 530.262C1637.01 525.926 1636.15 520.001 1636.15 513.5C1636.15 513.335 1636.15 513.17 1636.15 513.007L1636.15 512.501C1636.15 506 1637.01 500.074 1638.43 495.738C1639.13 493.576 1640 491.754 1641 490.451C1642 489.162 1643.26 488.234 1644.76 488.234C1646.25 488.235 1647.51 489.162 1648.51 490.451C1649.52 491.754 1650.38 493.576 1651.09 495.738C1652.51 500.074 1653.37 506 1653.37 512.501C1653.37 512.671 1653.36 512.84 1653.36 513.007ZM1675.56 513.01C1675.56 513.173 1675.56 513.336 1675.56 513.499C1675.56 518.868 1674.7 523.775 1673.26 527.376C1672.55 529.174 1671.67 530.696 1670.64 531.785C1669.62 532.876 1668.37 533.6 1666.95 533.601C1665.54 533.601 1664.29 532.876 1663.26 531.785C1662.24 530.696 1661.36 529.174 1660.64 527.376C1659.21 523.775 1658.34 518.869 1658.34 513.5C1658.34 513.337 1658.34 513.173 1658.35 513.01V513.008L1658.34 512.795V512.792C1658.34 512.695 1658.34 512.598 1658.34 512.501C1658.34 507.132 1659.21 502.225 1660.64 498.624C1661.36 496.826 1662.24 495.304 1663.26 494.215C1664.29 493.124 1665.54 492.399 1666.95 492.399L1667.22 492.408C1668.52 492.492 1669.68 493.192 1670.64 494.215C1671.67 495.304 1672.55 496.826 1673.26 498.624C1674.7 502.225 1675.56 507.132 1675.56 512.501C1675.56 512.671 1675.56 512.84 1675.56 513.01ZM1698.75 513.016C1698.75 513.174 1698.75 513.337 1698.75 513.5C1698.75 517.89 1697.88 521.914 1696.42 524.877C1694.99 527.776 1692.83 529.966 1690.14 529.966C1687.44 529.966 1685.28 527.776 1683.85 524.877C1682.4 521.914 1681.52 517.89 1681.52 513.5C1681.52 513.337 1681.52 513.174 1681.53 513.016L1681.52 512.501C1681.52 508.111 1682.4 504.087 1683.85 501.123C1685.28 498.224 1687.44 496.034 1690.14 496.034C1692.83 496.034 1694.99 498.224 1696.42 501.123C1697.88 504.087 1698.75 508.111 1698.75 512.501C1698.75 512.675 1698.75 512.847 1698.75 513.016ZM1721.86 512.99C1721.86 513.157 1721.87 513.327 1721.87 513.5C1721.87 516.846 1721.07 519.924 1719.72 522.199C1718.38 524.453 1716.39 526.082 1714 526.082C1711.61 526.082 1709.62 524.453 1708.29 522.199C1706.94 519.924 1706.14 516.846 1706.14 513.5C1706.14 513.328 1706.14 513.159 1706.14 512.993C1706.14 512.832 1706.14 512.668 1706.14 512.501C1706.14 509.155 1706.94 506.076 1708.29 503.801C1709.62 501.547 1711.61 499.918 1714 499.918C1716.39 499.918 1718.38 501.547 1719.72 503.801C1721.07 506.076 1721.87 509.155 1721.87 512.501C1721.87 512.667 1721.86 512.83 1721.86 512.99ZM1792.38 512.993C1792.39 513.16 1792.39 513.329 1792.39 513.5C1792.39 516.851 1791.57 519.932 1790.18 522.209C1788.81 524.468 1786.77 526.082 1784.34 526.082C1781.92 526.082 1779.88 524.469 1778.51 522.21C1777.12 519.933 1776.3 516.851 1776.3 513.5C1776.3 513.328 1776.3 513.158 1776.3 512.99C1776.3 512.829 1776.3 512.666 1776.3 512.501C1776.3 509.15 1777.12 506.068 1778.51 503.791C1779.88 501.532 1781.92 499.918 1784.34 499.918C1786.77 499.918 1788.81 501.532 1790.18 503.791C1791.57 506.068 1792.39 509.15 1792.39 512.501C1792.39 512.667 1792.39 512.831 1792.38 512.993Z" fill="url(#paint39_linear_67_1856)"/>
<path d="M821.82 6L822.036 6.70898C826.619 21.7496 834.744 42.2028 840.026 57.1016C841.521 61.318 844.377 71.289 847.395 80.5879C848.591 84.274 849.816 87.8701 851.004 91.0064H848.868C847.747 87.9979 846.603 84.6293 845.492 81.2051C842.427 71.7566 839.634 61.9798 838.142 57.7695C832.986 43.2281 824.976 23.021 820.342 8L821.82 6Z" fill="url(#paint40_linear_67_1856)"/>
<path d="M914.208 96.6865C924.66 102.792 933.864 113.192 941.787 125.229C956.647 147.803 967.188 176.43 973.044 194.312L974.152 197.74C976.775 205.956 978.861 214.595 980.958 223.12C981.691 226.1 982.425 229.066 983.184 232H981.118C980.401 229.214 979.706 226.407 979.016 223.598C976.914 215.052 974.844 206.487 972.247 198.35L971.141 194.928C965.299 177.091 954.827 148.675 940.117 126.328C932.27 114.407 923.27 104.297 913.199 98.4141C908.534 95.6891 903.637 93.8684 898.504 93.1979L888.504 91.3406C897.733 89.9262 906.323 92.0806 914.208 96.6865Z" fill="url(#paint41_linear_67_1856)"/>
<path d="M1029.87 231.092C1036.48 231.33 1042.3 235.331 1047.29 241.017C1057.26 252.376 1064.44 271.067 1068.5 283.197C1069.28 285.531 1069.98 287.989 1070.65 290.5H1068.58C1067.96 288.202 1067.32 285.965 1066.6 283.832C1062.54 271.687 1055.46 253.357 1045.79 242.335C1040.96 236.83 1035.61 233.3 1029.8 233.09L1023.58 232C1025.72 231.307 1027.82 231.018 1029.87 231.092Z" fill="url(#paint42_linear_67_1856)"/>
<path d="M1116.93 290.427C1121.72 291.921 1125.52 296.55 1128.64 302.537C1131.78 308.568 1134.34 316.213 1136.54 324.11C1138.73 332.013 1140.57 340.231 1142.24 347.406C1142.96 350.508 1143.66 353.405 1144.33 356H1142.26C1141.62 353.494 1140.97 350.751 1140.29 347.861C1138.61 340.66 1136.79 332.497 1134.61 324.646C1132.43 316.788 1129.91 309.304 1126.87 303.46C1123.9 297.756 1120.54 293.831 1116.71 292.461L1116.33 292.337C1115.16 291.971 1114.05 291.76 1113 291.687L1107 290.716C1109.85 289.493 1113.12 289.24 1116.93 290.427Z" fill="url(#paint43_linear_67_1856)"/>
<path d="M1178.15 327.606C1180.19 328.065 1182.28 329.329 1184.43 331.454C1186.1 333.097 1187.58 335.52 1188.91 338.463C1190.25 341.417 1191.48 344.96 1192.6 348.896C1194.85 356.77 1196.73 366.304 1198.35 376.037C1199.97 385.773 1201.35 395.74 1202.58 404.478C1203.74 412.687 1204.77 419.785 1205.77 424.629L1205.97 425.567C1206.14 426.328 1206.31 427.146 1206.48 428H1204.44L1204.38 427.708C1204.25 427.087 1204.13 426.503 1204.02 425.997C1202.93 421.065 1201.83 413.487 1200.6 404.758C1199.36 396.009 1198 386.072 1196.38 376.366C1194.76 366.657 1192.9 357.211 1190.68 349.446C1189.57 345.564 1188.38 342.123 1187.09 339.289C1185.8 336.443 1184.44 334.272 1183.03 332.877C1181.04 330.913 1179.27 329.907 1177.71 329.558L1174.71 327.606C1175.81 327.353 1176.95 327.337 1178.15 327.606Z" fill="url(#paint44_linear_67_1856)"/>
<path d="M1234.58 356.21C1237.27 355.952 1239.6 357.56 1241.47 359.74C1245.23 364.109 1247.94 371.641 1249.14 376.371C1252.8 390.846 1254.32 406.207 1255.74 421.409C1257 434.945 1258.18 448.349 1260.7 461H1258.66C1256.17 448.331 1254.99 434.955 1253.75 421.595C1252.33 406.374 1250.82 391.163 1247.2 376.861C1246.02 372.206 1243.4 365.05 1239.96 361.045C1238.81 359.71 1237.65 358.82 1236.5 358.422L1232.18 356.945C1232.97 356.531 1233.78 356.288 1234.58 356.21Z" fill="url(#paint45_linear_67_1856)"/>
<path d="M1287.21 382.533C1288.51 383.145 1289.58 384.316 1290.49 385.723C1291.4 387.143 1292.19 388.894 1292.89 390.791C1295.65 398.349 1297 408.845 1297.47 412.073C1301.09 437.167 1302.45 462.925 1304.09 487.959C1304.63 496.205 1304.93 504.562 1305.01 512.991V513.009C1304.93 521.438 1304.63 529.795 1304.09 538.041C1302.45 563.075 1301.09 588.833 1297.47 613.927C1297 617.155 1295.65 627.651 1292.89 635.209C1292.19 637.106 1291.4 638.857 1290.49 640.277C1289.58 641.684 1288.51 642.855 1287.21 643.467C1285.86 644.107 1284.37 644.079 1282.86 643.29C1281.39 642.528 1279.91 641.07 1278.38 638.889C1277.36 637.432 1276.48 635.357 1275.7 632.88C1274.91 630.388 1274.21 627.422 1273.57 624.139C1272.28 617.572 1271.24 609.663 1270.33 601.599C1268.55 585.907 1267.24 569.707 1265.54 561.253L1265.38 560.459C1265.13 559.323 1265.03 558.407 1264.75 557.428C1264.52 556.625 1264.2 555.96 1263.69 555.439C1263.67 555.458 1263.65 555.481 1263.62 555.51C1263.36 555.774 1263.08 556.263 1262.79 556.921C1262.23 558.204 1261.84 559.749 1261.71 560.282C1258.47 574.294 1257.16 589.359 1255.74 604.591C1254.32 619.793 1252.8 635.154 1249.14 649.629C1247.94 654.359 1245.23 661.891 1241.47 666.26C1239.6 668.44 1237.27 670.048 1234.58 669.79C1231.91 669.534 1229.32 667.47 1226.8 663.418C1224.84 660.253 1223.25 655.69 1221.92 650.465C1220.59 645.221 1219.48 639.225 1218.5 633.142C1216.53 620.916 1215.07 608.426 1213.25 600.615C1212.84 598.825 1212.02 594.521 1210.86 591.707C1210.58 591.013 1210.29 590.462 1210.01 590.084C1209.73 589.698 1209.56 589.624 1209.53 589.615C1209.53 589.616 1209.52 589.618 1209.52 589.62C1209.48 589.635 1209.39 589.686 1209.24 589.837C1208.95 590.15 1208.56 590.757 1208.12 591.814C1207.68 592.879 1207.29 594.355 1206.93 595.934C1206.57 597.536 1206.27 599.075 1205.97 600.432C1204.91 605.272 1203.82 612.765 1202.58 621.522C1201.35 630.26 1199.97 640.227 1198.35 649.963C1196.73 659.696 1194.85 669.23 1192.6 677.104C1191.48 681.04 1190.25 684.583 1188.91 687.537C1187.58 690.48 1186.1 692.903 1184.43 694.546C1182.28 696.671 1180.19 697.935 1178.15 698.394C1176.09 698.858 1174.17 698.474 1172.43 697.487C1169.04 695.564 1166.32 691.341 1164.09 686.594C1161.84 681.796 1159.99 676.238 1158.45 671.398C1156.9 666.491 1155.7 662.437 1154.71 660.452C1153.71 658.429 1152.86 657.054 1152.13 656.229C1151.37 655.383 1150.94 655.327 1150.73 655.364C1150.43 655.417 1149.92 655.739 1149.21 656.834C1148.61 657.751 1147.97 659.051 1147.26 660.745L1146.95 661.496C1145.43 665.279 1143.92 671.381 1142.24 678.594C1140.57 685.769 1138.73 693.987 1136.54 701.89C1134.34 709.787 1131.78 717.432 1128.64 723.463C1125.52 729.45 1121.72 734.079 1116.93 735.573C1112.05 737.093 1108.05 736.253 1104.71 734.036C1101.42 731.859 1098.82 728.388 1096.55 724.736C1095.25 722.65 1093.87 719.405 1092.44 716.162C1090.98 712.863 1089.45 709.524 1087.83 707.073C1087.02 705.848 1086.22 704.903 1085.44 704.301C1084.68 703.706 1084.01 703.5 1083.39 703.579C1082.76 703.661 1081.97 704.069 1081.03 705.164C1080.09 706.259 1079.07 707.962 1077.99 710.447C1075.94 715.153 1074.43 720.632 1073 726.266C1071.58 731.87 1070.23 737.639 1068.5 742.803C1064.44 754.933 1057.26 773.624 1047.29 784.983C1042.3 790.669 1036.48 794.67 1029.87 794.908C1023.24 795.148 1016.14 791.588 1008.63 782.9C1006.47 780.411 1004.46 777.406 1002.6 774.757C1000.69 772.052 998.96 769.761 997.306 768.474C996.49 767.839 995.774 767.515 995.138 767.451C994.536 767.391 993.888 767.551 993.152 768.126C991.591 769.346 989.807 772.291 987.848 778.043C985.169 785.91 983.058 794.34 980.958 802.88L980.611 804.292C978.629 812.357 976.63 820.496 974.152 828.259C968.574 845.726 957.637 876.692 941.787 900.771C933.864 912.808 924.66 923.208 914.208 929.313C903.71 935.445 891.965 937.233 879.123 932.039C877.311 931.305 875.302 930.082 873.271 928.828L872.899 928.598C870.956 927.397 868.969 926.17 866.981 925.203C864.863 924.172 862.83 923.482 860.947 923.417C859.107 923.353 857.378 923.882 855.787 925.373C855.324 925.808 854.741 926.654 854.065 927.925C853.403 929.172 852.693 930.747 851.955 932.564C850.479 936.197 848.913 940.732 847.395 945.412C844.377 954.711 841.521 964.682 840.026 968.898C834.744 983.797 826.619 1004.25 822.036 1019.29L821.82 1020L820.342 1018C824.976 1002.98 832.986 982.772 838.142 968.23C839.634 964.02 842.427 954.243 845.492 944.795C847.015 940.101 848.599 935.512 850.103 931.812C850.854 929.962 851.592 928.318 852.299 926.986C852.993 925.679 853.702 924.586 854.419 923.914C856.425 922.034 858.683 921.337 861.017 921.418C863.307 921.498 865.635 922.324 867.856 923.404C869.935 924.416 871.999 925.691 873.919 926.878L874.321 927.126C876.385 928.4 878.247 929.525 879.874 930.185C892.077 935.12 903.174 933.442 913.199 927.586C923.27 921.703 932.27 911.593 940.117 899.672C955.807 875.836 966.677 845.093 972.247 827.65C974.703 819.957 976.687 811.882 978.672 803.801L979.016 802.402C981.114 793.871 983.243 785.359 985.954 777.397C987.918 771.634 989.852 768.167 991.922 766.55C993.002 765.706 994.15 765.342 995.337 765.461C996.489 765.576 997.556 766.134 998.533 766.895C1000.46 768.397 1002.36 770.946 1004.23 773.604C1006.14 776.316 1008.07 779.199 1010.14 781.592C1017.45 790.044 1024.02 793.119 1029.8 792.91C1035.61 792.7 1040.96 789.17 1045.79 783.665C1055.46 772.643 1062.54 754.313 1066.6 742.168C1068.3 737.097 1069.62 731.435 1071.06 725.773C1072.49 720.141 1074.03 714.518 1076.15 709.648C1077.28 707.072 1078.39 705.169 1079.51 703.861C1080.63 702.555 1081.84 701.764 1083.13 701.596C1084.45 701.426 1085.64 701.92 1086.67 702.721C1087.69 703.514 1088.63 704.661 1089.5 705.969C1091.23 708.584 1092.82 712.08 1094.26 715.354C1095.64 718.474 1096.88 721.364 1098.02 723.305L1098.24 723.681C1100.48 727.277 1102.9 730.439 1105.81 732.369C1108.67 734.26 1112.04 735.001 1116.33 733.663L1116.71 733.539C1120.54 732.169 1123.9 728.244 1126.87 722.54C1129.91 716.696 1132.43 709.212 1134.61 701.354C1136.79 693.503 1138.61 685.34 1140.29 678.139C1141.96 670.975 1143.5 664.705 1145.1 660.748C1145.94 658.654 1146.74 656.958 1147.53 655.741C1148.3 654.571 1149.21 653.603 1150.38 653.396C1151.64 653.173 1152.72 653.887 1153.62 654.899C1154.54 655.931 1155.48 657.501 1156.5 659.563C1157.58 661.729 1158.85 666.025 1160.36 670.794C1161.9 675.631 1163.71 681.077 1165.9 685.743C1168.12 690.46 1170.62 694.159 1173.42 695.748C1174.77 696.517 1176.19 696.786 1177.71 696.442C1179.27 696.093 1181.04 695.087 1183.03 693.123C1184.44 691.728 1185.8 689.557 1187.09 686.711C1188.38 683.877 1189.57 680.436 1190.68 676.554C1192.9 668.789 1194.76 659.343 1196.38 649.634C1198 639.928 1199.36 629.991 1200.6 621.242C1201.83 612.513 1202.93 604.935 1204.02 600.003C1204.29 598.762 1204.62 597.057 1204.98 595.49C1205.34 593.9 1205.77 592.281 1206.28 591.048C1206.75 589.905 1207.25 589.034 1207.79 588.459C1208.36 587.867 1209.09 587.481 1209.93 587.656C1210.68 587.813 1211.24 588.369 1211.63 588.905C1212.04 589.468 1212.4 590.183 1212.71 590.945C1213.64 593.204 1214.36 596.344 1214.83 598.458L1215.2 600.16L1215.2 600.161C1217.04 608.055 1218.53 620.755 1220.47 632.823C1221.45 638.887 1222.55 644.814 1223.86 649.972C1225.18 655.148 1226.7 659.466 1228.5 662.362C1230.91 666.244 1233.05 667.633 1234.78 667.799C1236.49 667.963 1238.23 666.962 1239.96 664.955C1243.4 660.95 1246.02 653.794 1247.2 649.139C1250.82 634.837 1252.33 619.626 1253.75 604.405C1255.16 589.214 1256.49 574.003 1259.76 559.833L1259.76 559.831C1259.89 559.268 1260.32 557.577 1260.96 556.121C1261.27 555.408 1261.67 554.651 1262.18 554.124C1262.43 553.856 1262.77 553.591 1263.2 553.46C1263.66 553.319 1264.14 553.359 1264.59 553.589L1264.69 553.644L1264.78 553.721C1265.82 554.617 1266.35 555.762 1266.67 556.871C1266.97 557.912 1267.14 559.159 1267.33 560.036L1267.5 560.842C1269.22 569.427 1270.55 585.835 1272.32 601.373C1273.23 609.426 1274.26 617.269 1275.53 623.755C1276.16 626.998 1276.85 629.884 1277.61 632.278C1278.37 634.687 1279.17 636.534 1280.02 637.741C1281.46 639.804 1282.72 640.966 1283.78 641.516C1284.78 642.038 1285.61 642.012 1286.36 641.659C1287.17 641.277 1287.99 640.46 1288.8 639.196C1289.61 637.946 1290.34 636.345 1291.01 634.523C1293.68 627.205 1295.01 616.946 1295.49 613.641C1299.1 588.644 1300.45 562.985 1302.1 537.909C1302.64 529.71 1302.93 521.397 1303.01 513.009C1302.93 504.614 1302.64 496.296 1302.1 488.091C1300.45 463.015 1299.1 437.356 1295.49 412.359C1295.01 409.054 1293.68 398.795 1291.01 391.477C1290.34 389.655 1289.61 388.054 1288.8 386.804C1287.99 385.54 1287.17 384.723 1286.36 384.341L1283.78 382.322C1284.97 381.938 1286.13 382.024 1287.21 382.533Z" fill="url(#paint46_linear_67_1856)"/>
<path d="M1327.57 400.792C1329.28 400.792 1330.79 401.835 1332.08 403.416C1333.38 405.009 1334.59 407.298 1335.71 410.15C1337.97 415.865 1339.98 424.076 1341.66 434.149C1345.02 454.313 1347.1 482.13 1347.1 512.83L1347.1 512.832V513.003L1347.1 513.137V513.17C1347.1 543.87 1345.02 571.687 1341.66 591.851C1339.98 601.924 1337.97 610.135 1335.71 615.85C1334.59 618.702 1333.38 620.991 1332.08 622.584C1330.79 624.165 1329.28 625.208 1327.57 625.208C1325.85 625.208 1324.35 624.165 1323.06 622.584C1321.76 620.991 1320.55 618.702 1319.43 615.85C1317.17 610.135 1315.16 601.924 1313.48 591.851C1310.11 571.687 1308.04 543.87 1308.04 513.17V512.83H1310.04V513.173C1310.04 543.797 1312.11 571.497 1315.45 591.521C1317.12 601.542 1319.11 609.592 1321.29 615.115C1322.38 617.881 1323.5 619.956 1324.61 621.32C1325.73 622.697 1326.73 623.208 1327.57 623.208C1328.41 623.208 1329.41 622.697 1330.53 621.32C1331.64 619.955 1332.76 617.882 1333.85 615.115C1336.03 609.592 1338.01 601.542 1339.69 591.521C1343.03 571.497 1345.1 543.797 1345.1 513.173V513.17L1345.1 513.09V512.911L1345.1 512.83L1345.09 509.968C1344.97 480.481 1342.92 453.877 1339.69 434.479C1338.01 424.458 1336.03 416.408 1333.85 410.885C1332.76 408.118 1331.64 406.045 1330.53 404.68C1329.8 403.782 1329.12 403.253 1328.5 402.993L1325.35 401.399C1326.04 401.01 1326.78 400.792 1327.57 400.792Z" fill="url(#paint47_linear_67_1856)"/>
<path d="M1381.94 512.501C1381.94 486.314 1380.19 462.63 1377.36 445.513C1375.95 436.946 1374.27 430.072 1372.43 425.361C1371.51 423.001 1370.57 421.243 1369.64 420.092L1367.26 416.534L1367.54 416.545C1368.95 416.653 1370.17 417.556 1371.2 418.836C1372.31 420.215 1373.34 422.188 1374.3 424.634C1376.21 429.535 1377.91 436.567 1379.34 445.187C1382.18 462.441 1383.94 486.24 1383.94 512.501C1383.94 512.663 1383.94 512.846 1383.94 513.001L1383.94 513.228V513.5C1383.94 539.761 1382.18 563.559 1379.34 580.813C1377.91 589.433 1376.21 596.465 1374.3 601.366C1373.34 603.812 1372.31 605.785 1371.2 607.164C1370.1 608.53 1368.78 609.466 1367.26 609.466C1365.74 609.466 1364.42 608.531 1363.32 607.165C1362.21 605.786 1361.18 603.812 1360.23 601.367C1358.31 596.466 1356.61 589.433 1355.19 580.813C1352.34 563.559 1350.58 539.761 1350.58 513.5C1350.58 513.444 1350.58 513.387 1350.58 513.331L1350.58 513.152V512.788L1350.58 512.502L1352.58 512.501V512.783C1352.58 512.854 1352.58 512.927 1352.58 512.999V513.158L1352.58 513.258C1352.58 513.339 1352.58 513.42 1352.58 513.5C1352.58 539.687 1354.33 563.371 1357.16 580.488C1358.57 589.055 1360.25 595.929 1362.09 600.64C1363.01 603 1363.95 604.758 1364.88 605.909C1365.82 607.073 1366.62 607.465 1367.26 607.465C1367.9 607.465 1368.7 607.073 1369.64 605.908C1370.57 604.757 1371.51 602.999 1372.43 600.639C1374.27 595.928 1375.95 589.053 1377.36 580.487C1380.1 563.905 1381.83 541.16 1381.94 515.947L1381.94 513.5V513.232L1381.94 513.002V512.999C1381.94 512.822 1381.94 512.672 1381.94 512.501Z" fill="url(#paint48_linear_67_1856)"/>
<path d="M1402.66 428.674C1401.78 428.399 1400.84 428.411 1399.85 428.733L1402.45 430.737C1402.78 430.906 1403.12 431.162 1403.45 431.514C1404.39 432.501 1405.19 434.102 1405.86 436.021C1407.18 439.848 1407.82 444.419 1408.22 446.543L1408.22 446.544C1411.99 466.358 1413.63 489.761 1413.52 512.995V513.005C1413.63 536.239 1411.99 559.642 1408.22 579.456C1407.82 581.58 1407.18 586.152 1405.86 589.979C1405.19 591.898 1404.39 593.499 1403.45 594.486C1402.99 594.97 1402.53 595.273 1402.07 595.418C1401.61 595.559 1401.1 595.57 1400.47 595.366C1400.26 595.296 1399.87 594.99 1399.36 594.145C1398.88 593.343 1398.4 592.227 1397.93 590.854C1396.98 588.116 1396.13 584.518 1395.39 580.767C1394.29 575.146 1393.46 569.261 1392.99 565.572L1392.63 562.706C1390.78 547.286 1389.67 530.293 1389.58 513.108L1387.58 513.005C1387.67 530.304 1388.78 547.414 1390.64 562.944L1391 565.824C1391.48 569.537 1392.32 575.472 1393.43 581.151C1394.17 584.933 1395.05 588.637 1396.04 591.506C1396.53 592.937 1397.06 594.2 1397.65 595.172C1398.2 596.099 1398.92 596.959 1399.85 597.267C1400.84 597.589 1401.78 597.601 1402.66 597.326C1403.53 597.055 1404.27 596.525 1404.9 595.864C1406.14 594.563 1407.05 592.633 1407.74 590.634C1409.14 586.624 1409.81 581.806 1410.19 579.829C1413.98 559.856 1415.63 536.322 1415.52 513.005C1415.63 489.684 1413.99 466.146 1410.19 446.17C1409.81 444.193 1409.14 439.376 1407.74 435.366C1407.05 433.367 1406.14 431.437 1404.9 430.136C1404.27 429.475 1403.53 428.945 1402.66 428.674Z" fill="url(#paint49_linear_67_1856)"/>
<path d="M1855.98 462.717C1857.58 462.717 1858.94 463.72 1860.07 465.161C1861.13 466.517 1862.09 468.404 1862.95 470.693H1860.81C1860.06 468.845 1859.28 467.403 1858.49 466.392L1855.98 462.717Z" fill="url(#paint50_linear_67_1856)"/>
<path d="M1831.89 480.223C1833.33 480.223 1834.58 481.018 1835.62 482.194C1836.67 483.373 1837.59 485.034 1838.39 487.031C1840 491.034 1841.2 496.605 1841.8 503C1841.82 503.237 1841.85 503.471 1841.89 503.699H1839.87C1839.84 503.529 1839.82 503.359 1839.81 503.188C1839.22 496.905 1838.05 491.54 1836.54 487.776C1835.78 485.891 1834.96 484.461 1834.13 483.52C1833.23 482.444 1830.93 480.513 1828.96 481.396C1829.83 480.668 1830.8 480.223 1831.89 480.223Z" fill="url(#paint51_linear_67_1856)"/>
<path d="M1815.15 512.501C1815.15 507.019 1814.26 502.101 1812.86 498.592C1812.16 496.834 1811.35 495.478 1810.5 494.579C1809.65 493.682 1808.84 493.307 1808.09 493.307L1805.5 492.127C1806.29 491.611 1807.15 491.307 1808.09 491.307C1809.57 491.307 1810.87 492.061 1811.95 493.207C1813.03 494.351 1813.96 495.954 1814.72 497.851C1816.23 501.65 1817.15 506.83 1817.15 512.501L1817.15 512.572C1817.15 512.649 1817.15 512.727 1817.14 512.805L1817.14 512.806L1817.14 512.807L1817.14 513.008V513.01C1817.14 513.172 1817.15 513.336 1817.15 513.5C1817.15 519.171 1816.23 524.35 1814.72 528.149C1813.96 530.046 1813.03 531.649 1811.95 532.793C1810.87 533.939 1809.57 534.693 1808.09 534.693C1806.62 534.693 1805.31 533.939 1804.23 532.793C1803.15 531.649 1802.23 530.046 1801.47 528.149C1799.95 524.35 1799.04 519.171 1799.04 513.5C1799.04 513.336 1799.04 513.172 1799.04 513.01V513.007L1799.04 512.738V512.732L1799.04 512.666C1799.04 512.611 1799.04 512.556 1799.04 512.501H1801.04L1801.04 512.724L1801.04 512.993V513.01C1801.04 513.173 1801.04 513.336 1801.04 513.5C1801.04 518.982 1801.93 523.899 1803.33 527.408C1804.03 529.166 1804.84 530.522 1805.69 531.421C1806.53 532.318 1807.35 532.693 1808.09 532.693C1808.84 532.693 1809.65 532.318 1810.5 531.421C1811.35 530.522 1812.16 529.166 1812.86 527.408C1814.26 523.899 1815.15 518.982 1815.15 513.5L1815.14 513.01V512.992L1815.14 512.791C1815.15 512.695 1815.15 512.598 1815.15 512.501Z" fill="url(#paint52_linear_67_1856)"/>
<path d="M1592.04 487.203C1593.83 493.636 1594.95 502.581 1594.95 512.501C1594.95 512.609 1594.95 512.715 1594.95 512.824L1594.95 512.996V513.004L1594.95 513.182C1594.95 513.29 1594.95 513.395 1594.95 513.5C1594.95 523.42 1593.83 532.364 1592.04 538.797C1591.15 542.021 1590.1 544.558 1588.98 546.265C1587.9 547.903 1586.9 548.57 1586.07 548.647L1585.91 548.655C1585.04 548.655 1583.98 548.012 1582.83 546.265C1581.71 544.558 1580.66 542.021 1579.77 538.798C1577.98 532.365 1576.86 523.42 1576.86 513.5H1574.86C1574.86 523.548 1575.99 532.681 1577.84 539.333C1578.76 542.652 1579.88 545.41 1581.16 547.362C1582.41 549.274 1584 550.654 1585.91 550.654C1587.81 550.654 1589.4 549.274 1590.65 547.362C1591.93 545.41 1593.05 542.652 1593.97 539.333C1595.82 532.681 1596.95 523.548 1596.95 513.5C1596.95 513.389 1596.95 513.277 1596.95 513.17V513.004L1596.95 512.84C1596.95 512.728 1596.95 512.613 1596.95 512.501C1596.95 502.453 1595.82 493.319 1593.97 486.667C1593.05 483.348 1591.93 480.59 1590.65 478.638C1589.4 476.726 1587.81 475.346 1585.91 475.346L1588.59 479.183C1588.72 479.353 1588.85 479.537 1588.98 479.735C1590.1 481.442 1591.15 483.979 1592.04 487.203Z" fill="url(#paint53_linear_67_1856)"/>
<path d="M1564.96 512.501C1564.96 500.817 1563.84 490.27 1562.04 482.673C1561.14 478.866 1560.09 475.855 1558.95 473.82L1555.91 468.992C1557.9 468.992 1559.47 470.662 1560.69 472.845C1561.96 475.112 1563.07 478.327 1563.99 482.213C1565.83 490.001 1566.96 500.709 1566.96 512.501C1566.96 512.614 1566.96 512.727 1566.96 512.839L1566.96 513.004C1566.96 513.031 1566.96 513.059 1566.96 513.086L1566.96 513.162C1566.96 513.274 1566.96 513.387 1566.96 513.5C1566.96 525.292 1565.83 535.999 1563.99 543.787C1563.07 547.673 1561.96 550.888 1560.69 553.155C1559.47 555.338 1557.9 557.008 1555.91 557.008C1553.93 557.008 1552.35 555.339 1551.13 553.155C1549.86 550.888 1548.75 547.674 1547.84 543.788C1546 536 1544.87 525.292 1544.87 513.5H1546.87C1546.87 525.184 1547.99 535.731 1549.78 543.328C1550.68 547.134 1551.74 550.145 1552.88 552.18C1554.06 554.299 1555.12 555.009 1555.91 555.009C1556.7 555.009 1557.76 554.298 1558.95 552.18C1560.09 550.145 1561.14 547.134 1562.04 543.327C1563.84 535.73 1564.96 525.184 1564.96 513.5L1564.96 513.17L1564.96 513.004V512.997L1564.96 512.83L1564.96 512.501Z" fill="url(#paint54_linear_67_1856)"/>
<path d="M1531.96 477.284C1533.76 486.265 1534.88 498.717 1534.88 512.501V512.761L1534.88 512.849L1534.88 512.998V513.204L1534.88 513.322C1534.88 513.382 1534.88 513.441 1534.88 513.5C1534.88 527.284 1533.76 539.735 1531.96 548.716C1531.06 553.214 1529.99 556.791 1528.84 559.218C1528.27 560.434 1527.69 561.308 1527.15 561.864C1526.6 562.419 1526.17 562.582 1525.84 562.582C1525.51 562.582 1525.07 562.419 1524.53 561.864C1523.98 561.308 1523.41 560.434 1522.83 559.218C1521.68 556.791 1520.62 553.215 1519.71 548.717C1517.91 539.736 1516.79 527.284 1516.79 513.5H1514.79C1514.79 527.375 1515.92 539.964 1517.75 549.109C1518.67 553.674 1519.77 557.433 1521.02 560.074C1521.65 561.393 1522.33 562.487 1523.1 563.265C1523.86 564.044 1524.78 564.582 1525.84 564.582C1526.89 564.582 1527.81 564.043 1528.57 563.264C1529.34 562.486 1530.02 561.392 1530.65 560.074C1531.9 557.432 1533 553.674 1533.92 549.109C1535.75 539.964 1536.88 527.375 1536.88 513.5C1536.88 513.398 1536.88 513.295 1536.88 513.194V512.77L1536.88 512.697C1536.88 512.632 1536.88 512.567 1536.88 512.501C1536.88 498.626 1535.75 486.036 1533.92 476.891C1533 472.326 1531.9 468.568 1530.65 465.926C1530.02 464.608 1529.34 463.514 1528.57 462.736C1527.81 461.957 1526.89 461.418 1525.84 461.418L1527.85 465.013C1528.18 465.492 1528.51 466.081 1528.84 466.783C1529.99 469.21 1531.06 472.786 1531.96 477.284Z" fill="url(#paint55_linear_67_1856)"/>
<path d="M1503.51 513.002V512.998L1503.51 512.907L1503.51 512.798V512.501L1503.5 509.573C1503.37 495.029 1502.27 481.948 1500.58 472.339C1499.68 467.206 1498.61 463.112 1497.45 460.325C1496.87 458.927 1496.29 457.916 1495.73 457.27L1494.46 454.458C1495.57 454.458 1496.5 455.098 1497.25 455.965C1498 456.839 1498.68 458.068 1499.3 459.557C1500.54 462.543 1501.64 466.803 1502.55 471.992C1504.38 482.388 1505.51 496.71 1505.51 512.501L1505.51 512.627C1505.51 512.686 1505.51 512.745 1505.51 512.803L1505.51 513.003L1505.51 513.218C1505.51 513.312 1505.51 513.407 1505.51 513.5C1505.51 529.291 1504.38 543.612 1502.55 554.008C1501.64 559.197 1500.54 563.457 1499.3 566.443C1498.68 567.932 1498 569.161 1497.25 570.035C1496.5 570.902 1495.57 571.542 1494.46 571.542C1493.36 571.542 1492.43 570.902 1491.68 570.035C1490.93 569.162 1490.25 567.932 1489.63 566.443C1488.39 563.457 1487.29 559.197 1486.38 554.008C1484.55 543.612 1483.42 529.291 1483.42 513.5H1485.42C1485.42 529.212 1486.54 543.411 1488.35 553.661C1489.25 558.794 1490.32 562.888 1491.48 565.675C1492.06 567.072 1492.64 568.084 1493.2 568.73C1493.76 569.383 1494.19 569.542 1494.46 569.542C1494.74 569.542 1495.17 569.383 1495.73 568.73C1496.29 568.084 1496.87 567.073 1497.45 565.675C1498.61 562.888 1499.68 558.794 1500.58 553.661C1502.39 543.412 1503.51 529.212 1503.51 513.5C1503.51 513.408 1503.51 513.317 1503.51 513.225L1503.51 513.002Z" fill="url(#paint56_linear_67_1856)"/>
<path d="M1472.87 510.774C1472.75 487.787 1470.93 465.299 1467.62 454.2C1467.16 452.638 1466.67 450.646 1465.78 449.169C1465.35 448.447 1464.88 447.948 1464.37 447.685L1461.78 445.725C1463.09 445.3 1464.27 445.389 1465.28 445.905C1466.25 446.404 1466.97 447.248 1467.5 448.143C1468.55 449.898 1469.12 452.234 1469.54 453.629C1473.05 465.394 1474.87 489.25 1474.87 513L1474.87 515.227C1474.75 538.229 1472.94 560.973 1469.54 572.37C1469.12 573.765 1468.55 576.102 1467.5 577.857C1466.97 578.752 1466.25 579.596 1465.28 580.095C1464.27 580.611 1463.09 580.7 1461.78 580.275L1461.09 580.051V579.918C1460.6 579.576 1460.21 579.091 1459.91 578.619C1459.44 577.906 1459.05 577.03 1458.71 576.154C1458.03 574.41 1457.52 572.463 1457.23 571.483C1453.69 559.702 1452.06 537.344 1451.97 515.147V513H1453.97V515.147C1454.06 537.335 1455.7 559.431 1459.14 570.909C1459.46 571.983 1459.93 573.785 1460.57 575.432C1460.89 576.252 1461.23 576.983 1461.59 577.53C1461.96 578.112 1462.25 578.319 1462.4 578.366L1462.53 578.408C1463.33 578.641 1463.91 578.549 1464.37 578.315C1464.88 578.052 1465.35 577.553 1465.78 576.831C1466.67 575.354 1467.16 573.363 1467.62 571.801C1471.04 560.344 1472.87 536.75 1472.87 513L1472.87 510.774Z" fill="url(#paint57_linear_67_1856)"/>
<path d="M1432.15 437.64C1432.8 437.495 1433.42 437.465 1434.03 437.667C1434.71 437.892 1435.23 438.357 1435.71 438.876C1436.09 439.281 1436.41 439.88 1436.7 440.52C1436.99 441.183 1437.28 441.986 1437.56 442.873C1438.13 444.649 1438.68 446.83 1439.19 449.042C1440.2 453.468 1441.03 458.097 1441.32 460.04L1441.54 461.575C1443.81 477.504 1444.71 495.574 1444.63 513.005C1444.71 530.433 1443.81 548.499 1441.54 564.425L1441.32 565.96C1441.03 567.903 1440.2 572.533 1439.19 576.959C1438.68 579.171 1438.13 581.351 1437.56 583.127C1437.28 584.014 1436.99 584.817 1436.7 585.48C1436.41 586.12 1436.09 586.719 1435.71 587.124C1435.23 587.643 1434.71 588.108 1434.03 588.333C1433.33 588.564 1432.62 588.492 1431.87 588.292C1431.23 588.12 1430.69 587.696 1430.25 587.219C1429.8 586.734 1429.4 586.122 1429.03 585.452C1428.3 584.111 1427.64 582.406 1427.07 580.673C1426.22 578.066 1425.55 575.301 1425.13 573.41L1424.79 571.849C1421.45 555.632 1420.11 533.949 1420.21 513.005H1422.21C1422.11 533.891 1423.45 555.421 1426.75 571.444L1427.08 572.98C1427.49 574.834 1428.15 577.528 1428.97 580.052C1429.53 581.739 1430.14 583.309 1430.79 584.49C1431.11 585.081 1431.43 585.543 1431.72 585.868C1432.03 586.2 1432.25 586.324 1432.39 586.359C1432.97 586.514 1433.23 586.49 1433.4 586.435C1433.59 586.373 1433.82 586.219 1434.25 585.759C1434.39 585.61 1434.6 585.27 1434.87 584.674C1435.12 584.101 1435.38 583.372 1435.65 582.521C1436.2 580.822 1436.74 578.702 1437.24 576.513C1438.24 572.136 1439.06 567.557 1439.34 565.664L1439.56 564.142C1441.81 548.338 1442.71 530.371 1442.63 513.005V512.995C1442.71 495.629 1441.81 477.662 1439.56 461.858L1439.34 460.336C1439.06 458.443 1438.24 453.864 1437.24 449.487C1436.74 447.298 1436.2 445.178 1435.65 443.479C1435.38 442.628 1435.12 441.899 1434.87 441.326C1434.6 440.73 1434.39 440.389 1434.25 440.24L1432.15 437.64Z" fill="url(#paint58_linear_67_1856)"/>
<path d="M2312 512.835V513.085L2312 513.208L2312 513.333V514.292L2114.05 514.332C2078.46 515.83 2056.16 517.892 2037.67 522.562C2019.21 527.226 2004.51 534.504 1984.12 546.523C1957.5 562.226 1942.13 586.291 1932.71 613.528C1923.28 640.789 1919.82 671.156 1916.98 699.393L1916 709.5L1914 710L1913 697.893C1910.89 666.688 1905.86 644.064 1896.27 614.8L1895.33 611.947C1894.41 609.182 1892.19 602.737 1889.75 596.608C1888.53 593.543 1887.26 590.573 1886.07 588.188C1885.48 586.994 1884.92 585.962 1884.4 585.144C1883.87 584.307 1883.42 583.761 1883.09 583.48L1883.09 583.479C1882.28 582.797 1881.57 582.778 1880.62 582.905C1879.74 583.021 1878.45 583.334 1877.07 582.968L1876.8 582.885C1874.43 582.099 1872.7 580.259 1871.42 577.996C1870.13 575.734 1869.21 572.951 1868.49 570.101C1867.77 567.246 1867.22 564.252 1866.71 561.567C1866.19 558.851 1865.7 556.487 1865.09 554.784C1864.83 554.035 1864.69 553.525 1864.47 553.044C1864.37 552.824 1864.27 552.671 1864.17 552.562C1864.13 552.615 1864.09 552.678 1864.05 552.753C1863.74 553.257 1863.43 554.007 1863.14 554.788C1862.23 557.312 1861.21 559.382 1860.07 560.839C1858.94 562.28 1857.58 563.283 1855.98 563.283C1854.05 563.283 1852.46 561.829 1851.18 559.823C1849.87 557.767 1848.71 554.842 1847.7 551.281C1845.69 544.145 1844.27 534.219 1843.75 522.952C1843.71 522.106 1843.59 521.28 1843.36 520.631C1843.2 520.156 1843.01 519.864 1842.83 519.694C1842.75 519.793 1842.65 519.938 1842.55 520.146C1842.2 520.828 1841.9 521.876 1841.8 523C1841.2 529.395 1840 534.966 1838.39 538.969C1837.59 540.966 1836.67 542.627 1835.62 543.806C1834.58 544.982 1833.33 545.777 1831.89 545.777C1830.11 545.777 1828.62 544.577 1827.43 542.896C1826.23 541.19 1825.18 538.785 1824.32 535.903C1822.59 530.127 1821.54 522.206 1821.54 513.5C1821.54 513.378 1821.54 513.255 1821.54 513.137L1821.54 513.005L1821.54 512.501H1823.54C1823.54 512.664 1823.54 512.826 1823.54 512.995V513.005L1823.54 513.147C1823.54 513.267 1823.54 513.384 1823.54 513.5C1823.54 522.068 1824.58 529.786 1826.24 535.33C1827.07 538.108 1828.04 540.285 1829.07 541.743C1830.11 543.228 1831.08 543.778 1831.89 543.778C1832.54 543.778 1833.29 543.424 1834.13 542.48C1834.96 541.539 1835.78 540.109 1836.54 538.224C1838.05 534.46 1839.22 529.095 1839.81 522.812C1839.93 521.49 1840.28 520.189 1840.76 519.241C1841 518.777 1841.31 518.318 1841.7 518.001C1842.08 517.688 1842.67 517.437 1843.32 517.67L1843.45 517.724L1843.62 517.812C1844.48 518.282 1844.97 519.151 1845.25 519.972C1845.57 520.872 1845.71 521.909 1845.75 522.86C1846.26 534.035 1847.67 543.798 1849.63 550.739C1850.61 554.217 1851.71 556.929 1852.87 558.749C1854.06 560.62 1855.13 561.283 1855.98 561.283C1856.68 561.283 1857.53 560.845 1858.49 559.608C1859.44 558.387 1860.38 556.54 1861.26 554.108C1861.55 553.3 1861.92 552.397 1862.33 551.718C1862.54 551.387 1862.79 551.031 1863.11 550.776C1863.42 550.53 1863.94 550.275 1864.54 550.466L1864.66 550.51L1864.81 550.58C1865.57 550.95 1866 551.59 1866.28 552.192C1866.56 552.785 1866.78 553.565 1866.98 554.112C1867.65 555.986 1868.16 558.507 1868.67 561.19C1869.19 563.906 1869.73 566.827 1870.43 569.61C1871.13 572.398 1872 574.977 1873.15 577.006C1874.31 579.033 1875.7 580.414 1877.42 580.986C1878.35 581.294 1879.13 581.083 1880.35 580.922C1881.54 580.764 1882.94 580.736 1884.38 581.95L1884.59 582.144C1885.1 582.625 1885.6 583.301 1886.09 584.072C1886.66 584.971 1887.25 586.07 1887.86 587.298C1889.08 589.754 1890.38 592.781 1891.61 595.868C1894.07 602.046 1896.3 608.531 1897.23 611.315L1898.18 614.181C1907.75 643.424 1912.82 666.132 1914.96 697.294L1915.17 697.446C1917.98 669.717 1921.5 639.819 1930.82 612.874C1940.34 585.34 1955.95 560.815 1983.11 544.801L1985.01 543.685C2004.49 532.286 2019.04 525.209 2037.18 520.624C2052.98 516.633 2071.47 514.539 2098.28 513.082C2071.47 511.615 2052.98 509.485 2037.18 505.459C2019.03 500.834 2004.48 493.717 1985.01 482.316L1983.11 481.199C1955.95 465.185 1940.34 440.66 1930.82 413.126C1921.5 386.18 1917.98 356.282 1915.17 328.553L1913.03 327.646L1914 316.5L1916 316L1916.98 326.607C1919.82 354.844 1923.28 385.211 1932.71 412.472C1942.13 439.709 1957.5 463.774 1984.12 479.477C2004.51 491.497 2019.21 498.816 2037.67 503.521C2056.16 508.233 2078.46 510.337 2114.05 511.835L2312 511.875V512.834L2312 512.835Z" fill="url(#paint59_linear_67_1856)"/>
</g>
<g style="mix-blend-mode:multiply">
<rect x="857.653" y="14" width="972.347" height="1001" fill="url(#paint60_linear_67_1856)" fill-opacity="0.8"/>
</g>
</g>
<line x1="851" y1="91" x2="2312" y2="91.0001" stroke="url(#paint61_linear_67_1856)" stroke-width="2"/>
<line x1="851" y1="935" x2="2312" y2="935" stroke="url(#paint62_linear_67_1856)" stroke-width="2"/>
<path d="M1916 949H1914L1914 78H1916L1916 949Z" fill="url(#paint63_linear_67_1856)"/>
<rect x="1908" y="79" width="14.3818" height="29.0622" rx="6" fill="black" stroke="#A0A0A0" stroke-width="2"/>
<rect x="1908" y="921" width="14.3818" height="29.0622" rx="6" fill="black" stroke="#A0A0A0" stroke-width="2"/>
</g>
<defs>
<filter id="filter0_d_67_1856" x="816.342" y="6" width="1499.66" height="1022" filterUnits="userSpaceOnUse" color-interpolation-filters="sRGB">
<feFlood flood-opacity="0" result="BackgroundImageFix"/>
<feColorMatrix in="SourceAlpha" type="matrix" values="0 0 0 0 0 0 0 0 0 0 0 0 0 0 0 0 0 0 127 0" result="hardAlpha"/>
<feOffset dy="4"/>
<feGaussianBlur stdDeviation="2"/>
<feComposite in2="hardAlpha" operator="out"/>
<feColorMatrix type="matrix" values="0 0 0 0 0 0 0 0 0 0 0 0 0 0 0 0 0 0 0.25 0"/>
<feBlend mode="normal" in2="BackgroundImageFix" result="effect1_dropShadow_67_1856"/>
<feBlend mode="normal" in="SourceGraphic" in2="effect1_dropShadow_67_1856" result="shape"/>
</filter>
<linearGradient id="paint0_linear_67_1856" x1="-60" y1="233.5" x2="1916" y2="233.5" gradientUnits="userSpaceOnUse">
<stop offset="0.544764" stop-color="#A0A0A0"/>
<stop offset="0.764433" stop-color="#A0A0A0" stop-opacity="0.9"/>
<stop offset="1" stop-color="#A0A0A0"/>
</linearGradient>
<linearGradient id="paint1_linear_67_1856" x1="1070" y1="292.5" x2="1916" y2="291.5" gradientUnits="userSpaceOnUse">
<stop offset="0.587673" stop-color="#A0A0A0"/>
<stop offset="0.786207" stop-color="#A0A0A0" stop-opacity="0.8"/>
<stop offset="1" stop-color="#A0A0A0"/>
</linearGradient>
<linearGradient id="paint2_linear_67_1856" x1="-60" y1="328.5" x2="1916" y2="328.5" gradientUnits="userSpaceOnUse">
<stop offset="0.620975" stop-color="#A0A0A0"/>
<stop offset="0.803499" stop-color="#A0A0A0" stop-opacity="0.7"/>
<stop offset="1" stop-color="#A0A0A0"/>
</linearGradient>
<linearGradient id="paint3_linear_67_1856" x1="-60" y1="514.5" x2="2312" y2="514.5" gradientUnits="userSpaceOnUse">
<stop offset="0.726346" stop-color="#A0A0A0"/>
<stop offset="0.857729" stop-color="#A0A0A0" stop-opacity="0.3"/>
<stop offset="1" stop-color="#A0A0A0"/>
</linearGradient>
<linearGradient id="paint4_linear_67_1856" x1="-60" y1="357.5" x2="1911" y2="357.5" gradientUnits="userSpaceOnUse">
<stop offset="0.653329" stop-color="#A0A0A0"/>
<stop offset="0.8226" stop-color="#A0A0A0" stop-opacity="0.6"/>
<stop offset="1" stop-color="#A0A0A0"/>
</linearGradient>
<linearGradient id="paint5_linear_67_1856" x1="-60" y1="383.5" x2="1906" y2="383.5" gradientUnits="userSpaceOnUse">
<stop offset="0.679943" stop-color="#A0A0A0"/>
<stop offset="0.835173" stop-color="#A0A0A0" stop-opacity="0.5"/>
<stop offset="1" stop-color="#A0A0A0"/>
</linearGradient>
<linearGradient id="paint6_linear_67_1856" x1="-60" y1="402.5" x2="1900" y2="402.5" gradientUnits="userSpaceOnUse">
<stop offset="0.703026" stop-color="#A0A0A0"/>
<stop offset="0.837357" stop-color="#A0A0A0" stop-opacity="0.3"/>
<stop offset="1" stop-color="#A0A0A0"/>
</linearGradient>
<linearGradient id="paint7_linear_67_1856" x1="-60" y1="417.5" x2="1896" y2="417.5" gradientUnits="userSpaceOnUse">
<stop offset="0.726346" stop-color="#A0A0A0"/>
<stop offset="0.857729" stop-color="#A0A0A0" stop-opacity="0.3"/>
<stop offset="1" stop-color="#A0A0A0"/>
</linearGradient>
<linearGradient id="paint8_linear_67_1856" x1="-60" y1="429.5" x2="1892" y2="429.5" gradientUnits="userSpaceOnUse">
<stop offset="0.744018" stop-color="#A0A0A0"/>
<stop offset="0.87283" stop-color="#A0A0A0" stop-opacity="0.3"/>
<stop offset="1" stop-color="#A0A0A0"/>
</linearGradient>
<linearGradient id="paint9_linear_67_1856" x1="-60" y1="439.5" x2="1887" y2="439.5" gradientUnits="userSpaceOnUse">
<stop offset="0.76179" stop-color="#A0A0A0"/>
<stop offset="0.877941" stop-color="#A0A0A0" stop-opacity="0.3"/>
<stop offset="1" stop-color="#A0A0A0"/>
</linearGradient>
<linearGradient id="paint10_linear_67_1856" x1="-60" y1="447.5" x2="1874" y2="447.5" gradientUnits="userSpaceOnUse">
<stop offset="0.785372" stop-color="#A0A0A0"/>
<stop offset="0.892909" stop-color="#A0A0A0" stop-opacity="0.3"/>
<stop offset="1" stop-color="#A0A0A0"/>
</linearGradient>
<linearGradient id="paint11_linear_67_1856" x1="-60" y1="455.5" x2="1870" y2="455.5" gradientUnits="userSpaceOnUse">
<stop offset="0.80259" stop-color="#A0A0A0"/>
<stop offset="0.899289" stop-color="#A0A0A0" stop-opacity="0.3"/>
<stop offset="1" stop-color="#A0A0A0"/>
</linearGradient>
<linearGradient id="paint12_linear_67_1856" x1="-60" y1="463.5" x2="1869" y2="463.5" gradientUnits="userSpaceOnUse">
<stop offset="0.819819" stop-color="#A0A0A0"/>
<stop offset="0.90878" stop-color="#A0A0A0" stop-opacity="0.3"/>
<stop offset="1" stop-color="#A0A0A0"/>
</linearGradient>
<linearGradient id="paint13_linear_67_1856" x1="-60" y1="471.5" x2="1866" y2="471.5" gradientUnits="userSpaceOnUse">
<stop offset="0.838357" stop-color="#A0A0A0"/>
<stop offset="0.915961" stop-color="#A0A0A0" stop-opacity="0.3"/>
<stop offset="1" stop-color="#A0A0A0"/>
</linearGradient>
<linearGradient id="paint14_linear_67_1856" x1="-60" y1="477.5" x2="1848" y2="477.5" gradientUnits="userSpaceOnUse">
<stop offset="0.860456" stop-color="#A0A0A0"/>
<stop offset="0.927609" stop-color="#A0A0A0" stop-opacity="0.3"/>
<stop offset="1" stop-color="#A0A0A0"/>
</linearGradient>
<linearGradient id="paint15_linear_67_1856" x1="-60" y1="483.5" x2="1848" y2="483.5" gradientUnits="userSpaceOnUse">
<stop offset="0.875793" stop-color="#A0A0A0"/>
<stop offset="0.938386" stop-color="#A0A0A0" stop-opacity="0.3"/>
<stop offset="1" stop-color="#A0A0A0"/>
</linearGradient>
<linearGradient id="paint16_linear_67_1856" x1="-60" y1="505.5" x2="1844" y2="505.5" gradientUnits="userSpaceOnUse">
<stop offset="0.918781" stop-color="#A0A0A0"/>
<stop offset="0.954506" stop-color="#A0A0A0" stop-opacity="0.3"/>
<stop offset="1" stop-color="#A0A0A0"/>
</linearGradient>
<linearGradient id="paint17_linear_67_1856" x1="-37" y1="494.25" x2="1846.01" y2="494.25" gradientUnits="userSpaceOnUse">
<stop offset="0.890416" stop-color="#A0A0A0"/>
<stop offset="0.946021" stop-color="#A0A0A0" stop-opacity="0.3"/>
<stop offset="1" stop-color="#A0A0A0"/>
</linearGradient>
<linearGradient id="paint18_linear_67_1856" x1="1858.83" y1="512.001" x2="1911.84" y2="512.001" gradientUnits="userSpaceOnUse">
<stop/>
<stop offset="1" stop-opacity="0.5"/>
</linearGradient>
<linearGradient id="paint19_linear_67_1856" x1="1858.83" y1="512.001" x2="1911.84" y2="512.001" gradientUnits="userSpaceOnUse">
<stop/>
<stop offset="1" stop-opacity="0.5"/>
</linearGradient>
<linearGradient id="paint20_linear_67_1856" x1="1858.83" y1="512.001" x2="1911.84" y2="512.001" gradientUnits="userSpaceOnUse">
<stop/>
<stop offset="1" stop-opacity="0.5"/>
</linearGradient>
<linearGradient id="paint21_linear_67_1856" x1="1858.83" y1="512.001" x2="1911.84" y2="512.001" gradientUnits="userSpaceOnUse">
<stop/>
<stop offset="1" stop-opacity="0.5"/>
</linearGradient>
<linearGradient id="paint22_linear_67_1856" x1="1858.83" y1="512.001" x2="1911.84" y2="512.001" gradientUnits="userSpaceOnUse">
<stop/>
<stop offset="1" stop-opacity="0.5"/>
</linearGradient>
<linearGradient id="paint23_linear_67_1856" x1="1858.83" y1="512.001" x2="1911.84" y2="512.001" gradientUnits="userSpaceOnUse">
<stop/>
<stop offset="1" stop-opacity="0.5"/>
</linearGradient>
<linearGradient id="paint24_linear_67_1856" x1="1858.83" y1="512.001" x2="1911.84" y2="512.001" gradientUnits="userSpaceOnUse">
<stop/>
<stop offset="1" stop-opacity="0.5"/>
</linearGradient>
<linearGradient id="paint25_linear_67_1856" x1="1858.83" y1="512.001" x2="1911.84" y2="512.001" gradientUnits="userSpaceOnUse">
<stop/>
<stop offset="1" stop-opacity="0.5"/>
</linearGradient>
<linearGradient id="paint26_linear_67_1856" x1="1858.83" y1="512.001" x2="1911.84" y2="512.001" gradientUnits="userSpaceOnUse">
<stop/>
<stop offset="1" stop-opacity="0.5"/>
</linearGradient>
<linearGradient id="paint27_linear_67_1856" x1="1858.83" y1="512.001" x2="1911.84" y2="512.001" gradientUnits="userSpaceOnUse">
<stop/>
<stop offset="1" stop-opacity="0.5"/>
</linearGradient>
<linearGradient id="paint28_linear_67_1856" x1="1858.83" y1="512.001" x2="1911.84" y2="512.001" gradientUnits="userSpaceOnUse">
<stop/>
<stop offset="1" stop-opacity="0.5"/>
</linearGradient>
<linearGradient id="paint29_linear_67_1856" x1="1858.83" y1="512.001" x2="1911.84" y2="512.001" gradientUnits="userSpaceOnUse">
<stop/>
<stop offset="1" stop-opacity="0.5"/>
</linearGradient>
<linearGradient id="paint30_linear_67_1856" x1="1858.83" y1="512.001" x2="1911.84" y2="512.001" gradientUnits="userSpaceOnUse">
<stop/>
<stop offset="1" stop-opacity="0.5"/>
</linearGradient>
<linearGradient id="paint31_linear_67_1856" x1="1858.83" y1="512.001" x2="1911.84" y2="512.001" gradientUnits="userSpaceOnUse">
<stop/>
<stop offset="1" stop-opacity="0.5"/>
</linearGradient>
<linearGradient id="paint32_linear_67_1856" x1="1858.83" y1="512.001" x2="1911.84" y2="512.001" gradientUnits="userSpaceOnUse">
<stop/>
<stop offset="1" stop-opacity="0.5"/>
</linearGradient>
<linearGradient id="paint33_linear_67_1856" x1="1858.83" y1="512.001" x2="1911.84" y2="512.001" gradientUnits="userSpaceOnUse">
<stop/>
<stop offset="1" stop-opacity="0.5"/>
</linearGradient>
<linearGradient id="paint34_linear_67_1856" x1="1858.83" y1="512.001" x2="1911.84" y2="512.001" gradientUnits="userSpaceOnUse">
<stop/>
<stop offset="1" stop-opacity="0.5"/>
</linearGradient>
<linearGradient id="paint35_linear_67_1856" x1="1858.83" y1="512.001" x2="1911.84" y2="512.001" gradientUnits="userSpaceOnUse">
<stop/>
<stop offset="1" stop-opacity="0.5"/>
</linearGradient>
<linearGradient id="paint36_linear_67_1856" x1="1858.83" y1="512.001" x2="1911.84" y2="512.001" gradientUnits="userSpaceOnUse">
<stop/>
<stop offset="1" stop-opacity="0.5"/>
</linearGradient>
<linearGradient id="paint37_linear_67_1856" x1="1858.83" y1="512.001" x2="1911.84" y2="512.001" gradientUnits="userSpaceOnUse">
<stop/>
<stop offset="1" stop-opacity="0.5"/>
</linearGradient>
<linearGradient id="paint38_linear_67_1856" x1="950.5" y1="-9" x2="950.5" y2="1036" gradientUnits="userSpaceOnUse">
<stop/>
<stop offset="0.576923" stop-opacity="0"/>
<stop offset="1"/>
</linearGradient>
<linearGradient id="paint39_linear_67_1856" x1="1566.17" y1="6" x2="1566.17" y2="1020" gradientUnits="userSpaceOnUse">
<stop offset="0.283654" stop-color="#A0A0A0"/>
<stop offset="0.317308" stop-color="#E0E0E0"/>
<stop offset="0.5" stop-color="#A0A0A0"/>
</linearGradient>
<linearGradient id="paint40_linear_67_1856" x1="1566.17" y1="6" x2="1566.17" y2="1020" gradientUnits="userSpaceOnUse">
<stop offset="0.283654" stop-color="#A0A0A0"/>
<stop offset="0.317308" stop-color="#E0E0E0"/>
<stop offset="0.5" stop-color="#A0A0A0"/>
</linearGradient>
<linearGradient id="paint41_linear_67_1856" x1="1566.17" y1="6" x2="1566.17" y2="1020" gradientUnits="userSpaceOnUse">
<stop offset="0.283654" stop-color="#A0A0A0"/>
<stop offset="0.317308" stop-color="#E0E0E0"/>
<stop offset="0.5" stop-color="#A0A0A0"/>
</linearGradient>
<linearGradient id="paint42_linear_67_1856" x1="1566.17" y1="6" x2="1566.17" y2="1020" gradientUnits="userSpaceOnUse">
<stop offset="0.283654" stop-color="#A0A0A0"/>
<stop offset="0.317308" stop-color="#E0E0E0"/>
<stop offset="0.5" stop-color="#A0A0A0"/>
</linearGradient>
<linearGradient id="paint43_linear_67_1856" x1="1566.17" y1="6" x2="1566.17" y2="1020" gradientUnits="userSpaceOnUse">
<stop offset="0.283654" stop-color="#A0A0A0"/>
<stop offset="0.317308" stop-color="#E0E0E0"/>
<stop offset="0.5" stop-color="#A0A0A0"/>
</linearGradient>
<linearGradient id="paint44_linear_67_1856" x1="1566.17" y1="6" x2="1566.17" y2="1020" gradientUnits="userSpaceOnUse">
<stop offset="0.283654" stop-color="#A0A0A0"/>
<stop offset="0.317308" stop-color="#E0E0E0"/>
<stop offset="0.5" stop-color="#A0A0A0"/>
</linearGradient>
<linearGradient id="paint45_linear_67_1856" x1="1566.17" y1="6" x2="1566.17" y2="1020" gradientUnits="userSpaceOnUse">
<stop offset="0.283654" stop-color="#A0A0A0"/>
<stop offset="0.317308" stop-color="#E0E0E0"/>
<stop offset="0.5" stop-color="#A0A0A0"/>
</linearGradient>
<linearGradient id="paint46_linear_67_1856" x1="1566.17" y1="6" x2="1566.17" y2="1020" gradientUnits="userSpaceOnUse">
<stop offset="0.283654" stop-color="#A0A0A0"/>
<stop offset="0.317308" stop-color="#E0E0E0"/>
<stop offset="0.5" stop-color="#A0A0A0"/>
</linearGradient>
<linearGradient id="paint47_linear_67_1856" x1="1566.17" y1="6" x2="1566.17" y2="1020" gradientUnits="userSpaceOnUse">
<stop offset="0.283654" stop-color="#A0A0A0"/>
<stop offset="0.317308" stop-color="#E0E0E0"/>
<stop offset="0.5" stop-color="#A0A0A0"/>
</linearGradient>
<linearGradient id="paint48_linear_67_1856" x1="1566.17" y1="6" x2="1566.17" y2="1020" gradientUnits="userSpaceOnUse">
<stop offset="0.283654" stop-color="#A0A0A0"/>
<stop offset="0.317308" stop-color="#E0E0E0"/>
<stop offset="0.5" stop-color="#A0A0A0"/>
</linearGradient>
<linearGradient id="paint49_linear_67_1856" x1="1566.17" y1="6" x2="1566.17" y2="1020" gradientUnits="userSpaceOnUse">
<stop offset="0.283654" stop-color="#A0A0A0"/>
<stop offset="0.317308" stop-color="#E0E0E0"/>
<stop offset="0.5" stop-color="#A0A0A0"/>
</linearGradient>
<linearGradient id="paint50_linear_67_1856" x1="1566.17" y1="6" x2="1566.17" y2="1020" gradientUnits="userSpaceOnUse">
<stop offset="0.283654" stop-color="#A0A0A0"/>
<stop offset="0.317308" stop-color="#E0E0E0"/>
<stop offset="0.5" stop-color="#A0A0A0"/>
</linearGradient>
<linearGradient id="paint51_linear_67_1856" x1="1566.17" y1="6" x2="1566.17" y2="1020" gradientUnits="userSpaceOnUse">
<stop offset="0.283654" stop-color="#A0A0A0"/>
<stop offset="0.317308" stop-color="#E0E0E0"/>
<stop offset="0.5" stop-color="#A0A0A0"/>
</linearGradient>
<linearGradient id="paint52_linear_67_1856" x1="1566.17" y1="6" x2="1566.17" y2="1020" gradientUnits="userSpaceOnUse">
<stop offset="0.283654" stop-color="#A0A0A0"/>
<stop offset="0.317308" stop-color="#E0E0E0"/>
<stop offset="0.5" stop-color="#A0A0A0"/>
</linearGradient>
<linearGradient id="paint53_linear_67_1856" x1="1566.17" y1="6" x2="1566.17" y2="1020" gradientUnits="userSpaceOnUse">
<stop offset="0.283654" stop-color="#A0A0A0"/>
<stop offset="0.317308" stop-color="#E0E0E0"/>
<stop offset="0.5" stop-color="#A0A0A0"/>
</linearGradient>
<linearGradient id="paint54_linear_67_1856" x1="1566.17" y1="6" x2="1566.17" y2="1020" gradientUnits="userSpaceOnUse">
<stop offset="0.283654" stop-color="#A0A0A0"/>
<stop offset="0.317308" stop-color="#E0E0E0"/>
<stop offset="0.5" stop-color="#A0A0A0"/>
</linearGradient>
<linearGradient id="paint55_linear_67_1856" x1="1566.17" y1="6" x2="1566.17" y2="1020" gradientUnits="userSpaceOnUse">
<stop offset="0.283654" stop-color="#A0A0A0"/>
<stop offset="0.317308" stop-color="#E0E0E0"/>
<stop offset="0.5" stop-color="#A0A0A0"/>
</linearGradient>
<linearGradient id="paint56_linear_67_1856" x1="1566.17" y1="6" x2="1566.17" y2="1020" gradientUnits="userSpaceOnUse">
<stop offset="0.283654" stop-color="#A0A0A0"/>
<stop offset="0.317308" stop-color="#E0E0E0"/>
<stop offset="0.5" stop-color="#A0A0A0"/>
</linearGradient>
<linearGradient id="paint57_linear_67_1856" x1="1566.17" y1="6" x2="1566.17" y2="1020" gradientUnits="userSpaceOnUse">
<stop offset="0.283654" stop-color="#A0A0A0"/>
<stop offset="0.317308" stop-color="#E0E0E0"/>
<stop offset="0.5" stop-color="#A0A0A0"/>
</linearGradient>
<linearGradient id="paint58_linear_67_1856" x1="1566.17" y1="6" x2="1566.17" y2="1020" gradientUnits="userSpaceOnUse">
<stop offset="0.283654" stop-color="#A0A0A0"/>
<stop offset="0.317308" stop-color="#E0E0E0"/>
<stop offset="0.5" stop-color="#A0A0A0"/>
</linearGradient>
<linearGradient id="paint59_linear_67_1856" x1="1566.17" y1="6" x2="1566.17" y2="1020" gradientUnits="userSpaceOnUse">
<stop offset="0.283654" stop-color="#A0A0A0"/>
<stop offset="0.317308" stop-color="#E0E0E0"/>
<stop offset="0.5" stop-color="#A0A0A0"/>
</linearGradient>
<linearGradient id="paint60_linear_67_1856" x1="1830" y1="512.823" x2="857.679" y2="519.784" gradientUnits="userSpaceOnUse">
<stop stop-opacity="0"/>
<stop offset="0.182692" stop-opacity="0.25"/>
<stop offset="0.5625" stop-opacity="0.15"/>
<stop offset="1" stop-opacity="0"/>
</linearGradient>
<linearGradient id="paint61_linear_67_1856" x1="851" y1="92.5" x2="2312" y2="92.5001" gradientUnits="userSpaceOnUse">
<stop offset="0.383148" stop-color="#A0A0A0" stop-opacity="0.35"/>
<stop offset="0.383248" stop-color="#A0A0A0"/>
<stop offset="1" stop-color="#A0A0A0"/>
</linearGradient>
<linearGradient id="paint62_linear_67_1856" x1="851" y1="936.5" x2="2312" y2="936.5" gradientUnits="userSpaceOnUse">
<stop offset="0.383148" stop-color="#A0A0A0" stop-opacity="0.35"/>
<stop offset="0.596154" stop-color="#A0A0A0"/>
<stop offset="1" stop-color="#A0A0A0"/>
</linearGradient>
<linearGradient id="paint63_linear_67_1856" x1="1915" y1="78" x2="1915" y2="949" gradientUnits="userSpaceOnUse">
<stop stop-color="#A0A0A0"/>
<stop offset="0.285268" stop-color="#E0E0E0"/>
<stop offset="0.28573" stop-color="#E0E0E0" stop-opacity="0"/>
<stop offset="0.711434" stop-color="#A0A0A0" stop-opacity="0"/>
<stop offset="0.71153" stop-color="#A0A0A0"/>
</linearGradient>
<clipPath id="clip0_67_1856">
<rect width="1920" height="1046" fill="white"/>
</clipPath>
</defs>
</svg>
