<svg width="33" height="32" viewBox="0 0 33 32" fill="none" xmlns="http://www.w3.org/2000/svg">
<path d="M22.6234 28.0404V30.2754C22.6234 31.0104 22.0275 31.6062 21.2926 31.6062C20.5577 31.6061 19.9618 31.0103 19.9618 30.2754V24.5653C20.849 25.7237 21.7362 26.882 22.6234 28.0404ZM7.65202 25.6176C7.65202 26.3526 7.05621 26.9484 6.32123 26.9484C5.58632 26.9483 4.99045 26.3526 4.99045 25.6176V21.4914C5.87764 21.2939 6.76483 21.0963 7.65202 20.8988V25.6176ZM16.2804 19.3318C17.0238 19.3197 17.6329 19.919 17.6329 20.6624V26.6157C17.6329 27.3507 17.0371 27.9465 16.3021 27.9465C15.5672 27.9464 14.9713 27.3507 14.9713 26.6157V20.6624C14.9713 19.936 15.554 19.3437 16.2804 19.3318V19.3318ZM27.6138 21.4173V23.6214C27.6138 24.3564 27.018 24.9522 26.283 24.9522C25.5481 24.9522 24.9522 24.3564 24.9522 23.6214V20.8247C25.8394 21.0222 26.7266 21.2198 27.6138 21.4173ZM12.6425 19.6291V21.2926C12.6425 21.8326 12.3098 22.6234 11.3117 22.6234C10.5768 22.6233 9.98089 22.0275 9.98089 21.2926V20.2321L12.6425 19.6291ZM1.33079 9.98089C1.46735 9.98089 1.59923 10.0015 1.72326 10.0397C1.83303 10.087 1.94257 10.1394 2.05174 10.1966C2.05986 10.2008 2.06798 10.2051 2.0761 10.2093C2.42936 10.4486 2.66157 10.8529 2.66157 11.3117V19.0794C1.78285 19.1942 0 19.4088 0 19.4088V11.3117C0 10.5767 0.595869 9.98096 1.33079 9.98089ZM31.3733 9.98089C32.0713 9.98303 32.6043 10.603 32.6043 11.3117V19.0498C32.6043 19.7848 32.0084 20.3806 31.2735 20.3806V20.3806C30.5385 20.3806 29.9427 19.7848 29.9427 19.0498V11.3117C29.9427 10.4899 30.6296 9.97862 31.3733 9.98089ZM7.65202 13.4505V18.3399C6.76483 18.4559 5.87764 18.5719 4.99045 18.6879V12.068C5.87764 12.5289 6.76483 12.9897 7.65202 13.4505ZM27.6138 18.6443C26.7266 18.5283 25.8394 18.4123 24.9522 18.2964V13.6237C25.8394 13.1628 26.7266 12.702 27.6138 12.2412V18.6443ZM11.3117 8.31741C12.0467 8.31741 12.6425 8.91322 12.6425 9.6482V14.0015C12.6328 13.9961 12.6228 13.9914 12.6136 13.9856C12.4421 13.8761 12.2707 13.7666 12.0992 13.6571C11.3931 13.2063 10.6871 12.7553 9.98089 12.3046V9.6482C9.98089 8.91327 10.5768 8.31748 11.3117 8.31741ZM16.3021 4.65775C17.0371 4.65775 17.6329 5.25356 17.6329 5.98854V12.2635C17.6329 12.9985 17.0371 13.5943 16.3021 13.5943V13.5943C15.5672 13.5943 14.9713 12.9985 14.9713 12.2635V5.98854C14.9713 5.2536 15.5672 4.65782 16.3021 4.65775ZM26.283 5.65584C27.018 5.65584 27.6138 6.25165 27.6138 6.98663V8.90678C26.7266 9.47314 25.8395 10.0396 24.9522 10.606V6.98663C24.9522 6.25169 25.5481 5.65591 26.283 5.65584ZM6.32123 3.65966C7.05621 3.65966 7.65202 4.25547 7.65202 4.99045V10.3932C6.76484 9.82687 5.87762 9.26062 4.99045 8.69429V4.99045C4.99045 4.25551 5.58632 3.65973 6.32123 3.65966Z" fill="white"/>
<path d="M19.9618 14.1653V4.43065V1.33079C19.9618 0.595854 20.4608 0 21.2926 0C22.2912 0 22.6234 0.665393 22.6234 1.33079V12.5174C21.9344 12.9572 19.9618 14.1653 19.9618 14.1653Z" fill="white"/>
<path d="M16.3021 15.0334C17.0371 15.0334 17.6329 15.6292 17.6329 16.3642V16.4578C17.6329 17.1927 17.0371 17.7885 16.3021 17.7885V17.7885C15.5672 17.7885 14.9713 17.1927 14.9713 16.4578V16.3642C14.9713 15.6292 15.5672 15.0334 16.3021 15.0334V15.0334Z" fill="white"/>
<path d="M9.98089 17.9484V15.0058L12.6425 16.4685V17.4666L9.98089 17.9484Z" fill="white"/>
<path d="M22.6234 15.0334V17.9049L19.9618 17.4666V16.4685L22.6234 15.0334Z" fill="white"/>
<path d="M22.6234 20.1577V24.0662L19.9618 21.2926V19.6291L22.6234 20.1577Z" fill="white"/>
</svg>
