<svg width="30" height="30" viewBox="0 0 30 30" fill="none" xmlns="http://www.w3.org/2000/svg">
<g clip-path="url(#clip0_67_2009)">
<mask id="mask0_67_2009" style="mask-type:luminance" maskUnits="userSpaceOnUse" x="0" y="0" width="30" height="30">
<path d="M0 0H30V30H0V0Z" fill="white"/>
</mask>
<g mask="url(#mask0_67_2009)">
<path d="M3.47981 0.0884851C1.73231 0.452985 0.28481 1.81799 0.10781 3.65698C-0.0766903 5.55448 0.10781 7.56599 0.10781 9.47398V21.342C0.10781 23.5245 -0.44269 26.4855 0.96131 28.323C2.47781 30.309 5.24531 29.8365 7.43831 29.8365H24.4258C25.0993 29.8365 25.8613 29.9355 26.5198 29.7975C28.2703 29.433 29.7148 28.0665 29.8948 26.229C30.0793 24.3315 29.8948 22.32 29.8948 20.412V8.54249C29.8948 6.35999 30.4453 3.40049 29.0413 1.56149C27.5248 -0.424515 24.7558 0.0494851 22.5628 0.0494851H5.57531C4.90181 0.0494851 4.13981 -0.0495149 3.48131 0.0884851M14.0713 10.638L13.2553 12.849H14.6518L13.4893 15.6405L14.5363 15.7575C14.4208 16.0695 14.2663 16.6575 14.0323 16.902C13.8598 17.0805 13.5973 17.037 13.3723 17.037C12.8653 17.037 11.8408 17.247 11.5693 16.6875C11.4448 16.4325 11.6233 16.1085 11.7238 15.873C11.9338 15.384 12.2158 14.883 12.3238 14.361C12.0718 14.361 11.7523 14.4105 11.5108 14.322C10.6063 13.989 11.6128 12.534 11.8213 12.0345C11.9668 11.682 12.1423 10.9185 12.4603 10.6965C12.9103 10.3815 13.5913 10.6005 14.0698 10.6365M4.87481 17.9685C5.19581 17.9685 5.66981 18.063 5.86481 17.736C6.07031 17.3865 5.92331 16.62 5.92331 16.2225V12.3825C5.92331 12.0225 5.74031 10.9245 6.05831 10.6965C6.31931 10.5075 7.41581 10.5465 7.53281 10.8705C7.72331 11.3985 7.55231 12.285 7.55231 12.849V16.572C7.55231 17.2095 7.66181 17.952 7.39631 18.5505C7.14281 19.1205 5.96531 19.629 5.38031 19.1895C5.12231 18.996 4.93931 18.27 4.87481 17.9685ZM22.5613 10.638V11.22C22.9963 11.22 23.5393 11.13 23.9563 11.2575C25.3513 11.6835 25.2373 13.053 25.2373 14.244C25.4698 14.244 25.7083 14.226 25.9363 14.283C27.2728 14.6175 27.0988 15.954 27.0988 17.037C27.0988 17.613 27.2083 18.297 26.8288 18.783C26.4088 19.3185 25.7248 19.248 25.1218 19.248C24.9343 19.248 24.6253 19.308 24.4618 19.1895C24.1558 18.9705 24.0223 18.3165 23.9578 17.9685C24.3403 17.9685 25.0303 18.099 25.3348 17.8125C25.6933 17.475 25.5463 16.1565 25.1218 15.9315C24.8968 15.8115 24.5518 15.873 24.3073 15.873H22.5613V19.248H20.9323V15.873H19.3048V14.244H20.9338V12.849H19.8868V11.22H20.9338V10.638H22.5613ZM18.8383 11.22V12.849H17.9083V17.7345H19.4203V19.248H14.0683L14.6893 17.793L16.1638 17.7345V12.8505H15.2338V11.22H18.8383ZM25.4698 12.849C25.4698 12.519 25.4098 12.12 25.5088 11.8005C25.8988 10.545 27.7918 11.5575 26.8468 12.5955C26.7403 12.7155 26.5513 12.7725 26.4013 12.81C26.1028 12.885 25.7743 12.849 25.4713 12.849M4.87631 12.849L4.39181 17.154L3.59681 18.549L2.89931 16.689L3.24731 12.849H4.87631ZM10.2298 12.849L10.5778 16.689L9.88031 18.4335H9.64781C9.02231 17.4435 8.94281 16.4235 8.83331 15.2925C8.75531 14.487 8.60081 13.6575 8.60081 12.8475L10.2298 12.849ZM22.5628 12.849V14.244H23.6098V12.849H22.5628ZM13.8358 17.7345L13.2538 19.248H10.6948L11.3158 17.6775L12.2068 17.697L13.8358 17.7345Z" fill="white"/>
</g>
</g>
<defs>
<clipPath id="clip0_67_2009">
<rect width="30" height="30" fill="white"/>
</clipPath>
</defs>
</svg>
