<svg width="175" height="22" viewBox="0 0 175 22" fill="none" xmlns="http://www.w3.org/2000/svg">
<path d="M174.604 13.53C174.604 14.5374 174.231 15.3477 173.483 15.9609C172.736 16.5741 171.725 16.8807 170.45 16.8807C170.025 16.8807 169.6 16.8442 169.175 16.7712C168.75 16.6982 168.34 16.596 167.944 16.4646C167.549 16.3186 167.182 16.1507 166.845 15.9609C166.508 15.7711 166.215 15.5594 165.966 15.3258L166.933 13.5957C167.387 14.0629 167.93 14.4352 168.56 14.7126C169.19 14.99 169.82 15.1287 170.45 15.1287C171.065 15.1287 171.578 14.99 171.989 14.7126C172.399 14.4206 172.604 14.041 172.604 13.5738C172.604 13.1942 172.421 12.8803 172.055 12.6321C171.688 12.3693 171.036 12.1211 170.098 11.8875C169.395 11.7123 168.794 11.5225 168.296 11.3181C167.798 11.099 167.387 10.8508 167.065 10.5734C166.743 10.296 166.508 9.98944 166.362 9.65364C166.215 9.30323 166.142 8.90903 166.142 8.47103C166.142 7.93082 166.244 7.44172 166.45 7.00371C166.669 6.55111 166.97 6.17151 167.351 5.8649C167.732 5.5437 168.186 5.3028 168.714 5.1422C169.256 4.967 169.849 4.87939 170.494 4.87939C170.875 4.87939 171.249 4.9086 171.615 4.967C171.981 5.0254 172.326 5.113 172.648 5.2298C172.985 5.332 173.293 5.4561 173.571 5.6021C173.85 5.7481 174.084 5.916 174.275 6.10581L173.417 7.68262C173.022 7.36142 172.538 7.10591 171.967 6.91611C171.41 6.71171 170.86 6.60951 170.318 6.60951C169.659 6.60951 169.131 6.76281 168.736 7.06941C168.355 7.37602 168.164 7.79942 168.164 8.33962C168.164 8.57323 168.208 8.78493 168.296 8.97473C168.384 9.14993 168.53 9.31783 168.736 9.47843C168.941 9.62444 169.212 9.76314 169.549 9.89454C169.886 10.0259 170.303 10.1573 170.802 10.2887C171.256 10.4055 171.71 10.5369 172.164 10.6829C172.619 10.8289 173.022 11.0187 173.373 11.2523C173.74 11.486 174.033 11.7853 174.253 12.1503C174.487 12.5153 174.604 12.9752 174.604 13.53Z" fill="white"/>
<path d="M162.576 10.1547C162.546 9.18762 162.239 8.42564 161.652 7.86881C161.066 7.29733 160.282 7.01158 159.301 7.01158C158.319 7.01158 157.528 7.29 156.927 7.84683C156.326 8.40366 155.989 9.17296 155.916 10.1547H162.576ZM159.257 5.25317C159.989 5.25317 160.663 5.37773 161.279 5.62684C161.909 5.87594 162.444 6.22763 162.883 6.68188C163.338 7.12149 163.689 7.64901 163.938 8.26445C164.202 8.86524 164.334 9.52465 164.334 10.2427V11.6934H155.806C155.806 12.7924 156.121 13.6423 156.751 14.243C157.381 14.8292 158.238 15.1223 159.323 15.1223C160.158 15.1223 160.839 14.9537 161.367 14.6167C161.909 14.265 162.261 13.8108 162.422 13.2539L164.158 14.0892C164.041 14.5141 163.836 14.9025 163.543 15.2541C163.264 15.5912 162.913 15.8842 162.488 16.1333C162.077 16.3678 161.609 16.551 161.081 16.6828C160.553 16.8147 159.982 16.8807 159.367 16.8807C158.531 16.8807 157.777 16.7561 157.103 16.507C156.443 16.2432 155.886 15.8769 155.432 15.408C154.978 14.9244 154.626 14.3383 154.377 13.6496C154.143 12.9609 154.025 12.1769 154.025 11.2977C154.025 10.3892 154.15 9.56861 154.399 8.83594C154.648 8.08861 155 7.45119 155.454 6.92366C155.923 6.39614 156.48 5.98585 157.125 5.69278C157.769 5.39971 158.48 5.25317 159.257 5.25317Z" fill="white"/>
<path d="M150.184 8.81396C150.096 8.27178 149.795 7.8395 149.283 7.51713C148.77 7.1801 148.132 7.01158 147.37 7.01158C146.301 7.01158 145.473 7.34861 144.887 8.02267C144.315 8.69673 144.029 9.67118 144.029 10.946C144.029 12.2502 144.33 13.2613 144.93 13.9793C145.546 14.6826 146.403 15.0343 147.502 15.0343C148.293 15.0343 148.931 14.8585 149.414 14.5068C149.898 14.1551 150.147 13.6862 150.162 13.1001H152.448C152.374 13.6716 152.199 14.1918 151.92 14.6607C151.642 15.1149 151.283 15.5106 150.843 15.8476C150.404 16.17 149.891 16.4191 149.305 16.5949C148.718 16.7708 148.081 16.8587 147.392 16.8587C146.557 16.8587 145.795 16.7268 145.106 16.463C144.432 16.1846 143.861 15.7963 143.392 15.2981C142.923 14.7852 142.557 14.1698 142.293 13.4518C142.044 12.7337 141.919 11.9278 141.919 11.0339C141.919 10.1401 142.044 9.33415 142.293 8.61613C142.557 7.89812 142.923 7.29 143.392 6.79178C143.861 6.29357 144.432 5.91258 145.106 5.64882C145.78 5.38506 146.535 5.25317 147.37 5.25317C148.059 5.25317 148.689 5.34109 149.261 5.51694C149.832 5.67812 150.338 5.91991 150.777 6.24228C151.231 6.55 151.605 6.92366 151.898 7.36327C152.191 7.80287 152.382 8.28643 152.47 8.81396H150.184Z" fill="white"/>
<path d="M139.917 16.6827H138.159V5.4289H139.917V16.6827ZM138.005 2.61545V0.549316H139.983V2.61545H138.005Z" fill="white"/>
<path d="M134.159 11.012C134.159 10.3819 134.079 9.81774 133.917 9.31952C133.756 8.80665 133.529 8.37437 133.236 8.02269C132.943 7.65636 132.584 7.37794 132.159 7.18745C131.749 6.9823 131.287 6.87973 130.774 6.87973C129.734 6.87973 128.906 7.25339 128.291 8.00071C127.675 8.74804 127.367 9.75179 127.367 11.012C127.367 11.6421 127.448 12.2136 127.609 12.7264C127.77 13.2393 127.997 13.6789 128.291 14.0452C128.584 14.4116 128.935 14.6973 129.346 14.9025C129.771 15.093 130.239 15.1882 130.752 15.1882C131.265 15.1882 131.727 15.093 132.137 14.9025C132.562 14.6973 132.921 14.4116 133.214 14.0452C133.522 13.6789 133.756 13.2393 133.917 12.7264C134.079 12.2136 134.159 11.6421 134.159 11.012ZM136.049 10.946C136.049 11.8106 135.918 12.6092 135.654 13.3419C135.405 14.0599 135.046 14.6827 134.577 15.2102C134.108 15.7377 133.551 16.148 132.906 16.4411C132.262 16.7341 131.551 16.8807 130.774 16.8807C129.998 16.8807 129.287 16.7341 128.642 16.4411C127.997 16.148 127.441 15.7377 126.972 15.2102C126.503 14.6827 126.136 14.0599 125.873 13.3419C125.609 12.6092 125.477 11.8033 125.477 10.9241C125.477 10.0595 125.602 9.27556 125.851 8.57219C126.114 7.86883 126.473 7.26804 126.928 6.76982C127.397 6.27161 127.953 5.88329 128.598 5.60488C129.243 5.32646 129.961 5.18726 130.752 5.18726C131.544 5.18726 132.262 5.32646 132.906 5.60488C133.566 5.88329 134.123 6.27894 134.577 6.7918C135.046 7.29002 135.405 7.89081 135.654 8.59417C135.918 9.29754 136.049 10.0815 136.049 10.946Z" fill="white"/>
<path d="M117.294 16.6828L111.874 1.16479H113.633L118.569 15.0343L123.505 1.16479H125.219L119.865 16.6828H117.294Z" fill="white"/>
<path d="M96.714 21.3206L98.6263 16.5949L94.3622 5.42896H96.2964L99.7473 14.7925L103.594 5.42896H105.572L98.8901 21.3206H96.714Z" fill="white"/>
<path d="M87.2283 2.61548H88.9867V5.42894H93.2508V7.1214H88.9867V11.9131C88.9867 12.5139 89.0893 13.0414 89.2944 13.4956C89.4996 13.9352 89.7853 14.2869 90.1516 14.5507C90.5326 14.7998 90.9869 14.961 91.5144 15.0343C92.0419 15.0929 92.6207 15.0416 93.2508 14.8804V16.6828L92.7013 16.7267C91.8807 16.8 91.1334 16.7414 90.4593 16.5509C89.7853 16.3457 89.2065 16.038 88.7229 15.6277C88.254 15.2174 87.8877 14.7045 87.6239 14.0891C87.3602 13.4737 87.2283 12.785 87.2283 12.023V2.61548Z" fill="white"/>
<path d="M84.9031 16.6827H83.1447V5.4289H84.9031V16.6827ZM82.9908 2.61545V0.549316H84.9691V2.61545H82.9908Z" fill="white"/>
<path d="M81.1319 7.03356C80.3553 6.9896 79.6592 7.02623 79.0438 7.14346C78.443 7.24603 77.9301 7.42187 77.5052 7.67098C77.0949 7.92009 76.7798 8.23514 76.56 8.61613C76.3402 8.98246 76.2303 9.41474 76.2303 9.91295V16.6828H74.4719V5.42901H76.2303V7.05554C76.3036 6.51336 76.7285 6.08108 77.5052 5.75871C78.2965 5.43633 79.3149 5.27515 80.5604 5.27515H81.1319V7.03356Z" fill="white"/>
<path d="M70.3847 12.4627V10.7482C70.1503 11.012 69.8352 11.2025 69.4396 11.3197C69.0586 11.4369 68.641 11.5322 68.1867 11.6054C67.7471 11.6641 67.3002 11.7227 66.8459 11.7813C66.3917 11.8399 65.9814 11.9351 65.615 12.067C65.2487 12.1843 64.9483 12.3601 64.7139 12.5945C64.4794 12.829 64.3622 13.166 64.3622 13.6056C64.3622 14.1771 64.5746 14.6167 64.9996 14.9244C65.4392 15.2175 66.0693 15.364 66.8899 15.364C67.9889 15.364 68.8461 15.1149 69.4616 14.6167C70.077 14.1039 70.3847 13.3858 70.3847 12.4627ZM70.3188 8.57219C70.3188 8.05932 70.0697 7.64169 69.5715 7.31932C69.0732 6.98229 68.4285 6.81378 67.6372 6.81378C66.8166 6.81378 66.1792 7.0116 65.7249 7.40724C65.2707 7.78823 64.9776 8.38169 64.8457 9.18763L63.0653 8.72605C63.1533 8.15456 63.3218 7.64902 63.5709 7.20942C63.82 6.76982 64.1424 6.40348 64.538 6.11041C64.9337 5.81734 65.4026 5.59754 65.9447 5.45101C66.5016 5.28982 67.117 5.20923 67.7911 5.20923C69.3443 5.20923 70.4653 5.62685 71.154 6.46209C71.8574 7.28269 72.2091 8.62347 72.2091 10.4845V16.6829H70.2528V15.364C69.9305 15.8769 69.4835 16.2579 68.9121 16.507C68.3552 16.7561 67.6519 16.8807 66.802 16.8807C66.1426 16.8807 65.5491 16.8074 65.0216 16.6609C64.5087 16.5143 64.0691 16.3019 63.7028 16.0235C63.3511 15.745 63.08 15.4007 62.8895 14.9904C62.699 14.5801 62.6038 14.1185 62.6038 13.6056C62.6038 12.829 62.7943 12.2355 63.1752 11.8252C63.5562 11.4003 64.0325 11.0779 64.6039 10.8581C65.1754 10.6383 65.7909 10.4845 66.4503 10.3965C67.1243 10.294 67.7471 10.1914 68.3186 10.0888C68.8901 9.97159 69.3663 9.8104 69.7473 9.60525C70.1283 9.38545 70.3188 9.0411 70.3188 8.57219Z" fill="white"/>
<path d="M60.2849 16.6828H58.3947V0.285645H60.2849V16.6828Z" fill="white"/>
<path d="M46.4809 5.42896V12.1769C46.4809 13.1586 46.7593 13.9206 47.3161 14.4628C47.8729 15.005 48.6569 15.2761 49.668 15.2761C50.1955 15.2761 50.6791 15.2028 51.1187 15.0562C51.5729 14.8951 51.9612 14.6826 52.2836 14.4188C52.606 14.1404 52.8551 13.8107 53.0309 13.4297C53.2068 13.0487 53.2947 12.6311 53.2947 12.1769V5.42896H55.185V16.6828H53.2947V15.2541C53.1335 15.7669 52.6866 16.1846 51.9539 16.5069C51.2359 16.8147 50.3494 16.9685 49.2943 16.9685C48.591 16.9685 47.9462 16.8586 47.3601 16.6388C46.7886 16.4044 46.2977 16.082 45.8874 15.6717C45.4771 15.2467 45.1547 14.7339 44.9203 14.1331C44.7005 13.5176 44.5906 12.8363 44.5906 12.0889V5.42896H46.4809Z" fill="white"/>
<path d="M39.7479 5.36313H41.6381L41.5942 15.7377C41.5942 16.6609 41.477 17.4669 41.2425 18.1556C41.0227 18.8443 40.693 19.4158 40.2534 19.87C39.8138 20.3389 39.2643 20.6833 38.6049 20.9031C37.9455 21.1375 37.1762 21.2548 36.297 21.2548C35.7108 21.2548 35.1394 21.1888 34.5825 21.0569C34.0403 20.9397 33.5421 20.7639 33.0879 20.5294C32.6483 20.3096 32.2526 20.0385 31.9009 19.7162C31.5639 19.4084 31.3075 19.0567 31.1316 18.6611L32.7142 17.3863C32.978 18.0457 33.4542 18.5732 34.1429 18.9688C34.8463 19.3791 35.6742 19.5843 36.6267 19.5843C37.1689 19.5843 37.6524 19.4817 38.0774 19.2765C38.5023 19.0861 38.854 18.8076 39.1324 18.4413C39.4108 18.075 39.6086 17.6354 39.7259 17.1225C39.8578 16.6096 39.8871 16.0381 39.8138 15.408C39.6086 15.8476 39.191 16.1993 38.5609 16.4631C37.9308 16.7269 37.2201 16.8587 36.4289 16.8587C35.6229 16.8587 34.8829 16.7122 34.2089 16.4191C33.5348 16.1261 32.956 15.7231 32.4724 15.2102C32.0035 14.6827 31.6372 14.0599 31.3734 13.3419C31.1097 12.6092 30.9778 11.8106 30.9778 10.9461C30.9778 10.0815 31.1097 9.29757 31.3734 8.59421C31.6372 7.87619 32.0108 7.26074 32.4944 6.74787C32.978 6.22035 33.5568 5.81738 34.2308 5.53897C34.9196 5.2459 35.6815 5.09937 36.5168 5.09937C37.2788 5.09937 37.9528 5.23857 38.5389 5.51699C39.1397 5.78075 39.5427 6.13976 39.7479 6.59401V5.36313ZM32.8681 11.012C32.8681 12.3455 33.1685 13.3712 33.7693 14.0892C34.37 14.8073 35.2419 15.1663 36.3849 15.1663C37.4839 15.1663 38.3191 14.8292 38.8906 14.1552C39.4621 13.4811 39.7479 12.4627 39.7479 11.0999C39.7479 9.69321 39.4475 8.62351 38.8467 7.89084C38.2605 7.14352 37.418 6.76985 36.319 6.76985C35.2199 6.76985 34.37 7.14352 33.7693 7.89084C33.1685 8.62351 32.8681 9.66391 32.8681 11.012Z" fill="white"/>
<path d="M26.8347 16.6828V10.1108C26.8347 9.14366 26.571 8.37435 26.0434 7.80287C25.5159 7.23139 24.7979 6.94565 23.8894 6.94565C23.3912 6.94565 22.9076 7.03356 22.4387 7.20941C21.9844 7.38525 21.5815 7.6197 21.2298 7.91277C20.8781 8.20584 20.5997 8.54287 20.3945 8.92386C20.1894 9.30485 20.0868 9.70049 20.0868 10.1108V16.6828H18.1965V5.42902H20.0868V7.51713C20.3066 6.82842 20.7682 6.27891 21.4716 5.86862C22.1749 5.45832 23.0102 5.25317 23.9773 5.25317C24.6807 5.25317 25.3254 5.3704 25.9116 5.60486C26.4977 5.83931 26.9959 6.16901 27.4062 6.59396C27.8312 7.01891 28.1535 7.53178 28.3733 8.13257C28.6078 8.71871 28.725 9.37079 28.725 10.0888V16.6828H26.8347Z" fill="white"/>
<path d="M15.4355 16.6827H13.6771V5.4289H15.4355V16.6827ZM13.5232 2.61545V0.549316H15.5014V2.61545H13.5232Z" fill="white"/>
<path d="M1.68127 13.122C1.91573 13.4151 2.20147 13.6862 2.5385 13.9353C2.89018 14.1698 3.2785 14.3749 3.70345 14.5508C4.14305 14.7119 4.60463 14.8438 5.08819 14.9464C5.58641 15.0343 6.09928 15.0783 6.6268 15.0783C7.74046 15.0783 8.57571 14.8585 9.13254 14.4189C9.68937 13.9793 9.96778 13.3125 9.96778 12.4187C9.96778 12.067 9.91649 11.7666 9.81392 11.5175C9.71135 11.2537 9.52085 11.0266 9.24244 10.8361C8.97868 10.631 8.60501 10.4405 8.12145 10.2646C7.65254 10.0888 7.05175 9.90562 6.31908 9.71512C5.67433 9.55394 5.05156 9.37077 4.45077 9.16562C3.84998 8.96047 3.31513 8.69671 2.84622 8.37434C2.37731 8.05196 1.99632 7.64899 1.70325 7.16543C1.42484 6.68187 1.28563 6.06642 1.28563 5.3191C1.28563 4.64504 1.41019 4.04425 1.65929 3.51673C1.9084 2.97455 2.26741 2.5203 2.73632 2.15396C3.20523 1.77297 3.76939 1.48723 4.42879 1.29674C5.10285 1.09159 5.8575 0.989014 6.69274 0.989014C7.22027 0.989014 7.72581 1.02565 8.20937 1.09891C8.69293 1.17218 9.14719 1.28208 9.57214 1.42862C9.99709 1.57515 10.3708 1.74367 10.6931 1.93416C11.0302 2.12465 11.3086 2.34445 11.5284 2.59356L10.3634 4.02227C10.0557 3.62663 9.57214 3.31891 8.91274 3.09911C8.26799 2.86465 7.53531 2.74742 6.71472 2.74742C5.5571 2.74742 4.66324 2.98921 4.03315 3.47277C3.40305 3.94168 3.088 4.63039 3.088 5.5389C3.088 5.86127 3.13929 6.14702 3.24186 6.39613C3.34444 6.63058 3.5276 6.84305 3.79137 7.03355C4.05513 7.20939 4.40681 7.3779 4.84641 7.53909C5.30067 7.70028 5.87948 7.86147 6.58284 8.02265C7.56462 8.24246 8.38521 8.48424 9.04462 8.748C9.71867 8.99711 10.2535 9.28285 10.6492 9.60522C11.0595 9.9276 11.3452 10.3013 11.5064 10.7262C11.6822 11.1512 11.7702 11.6494 11.7702 12.2209C11.7702 13.6862 11.2866 14.8292 10.3195 15.6498C9.36699 16.4557 8.04818 16.8587 6.36304 16.8587C5.76225 16.8587 5.17611 16.8074 4.60463 16.7048C4.03315 16.6022 3.49097 16.4557 2.9781 16.2652C2.47989 16.0601 2.02563 15.8256 1.61533 15.5618C1.20504 15.2834 0.86801 14.9757 0.604248 14.6387L1.68127 13.122Z" fill="white"/>
</svg>
